<?xml version="1.0" standalone="no"?>
<!DOCTYPE svg PUBLIC "-//W3C//DTD SVG 1.1//EN" "http://www.w3.org/Graphics/SVG/1.1/DTD/svg11.dtd" >
<svg xmlns="http://www.w3.org/2000/svg">
<metadata></metadata>
<defs>
<font id="abril_textregular" horiz-adv-x="1472" >
<font-face units-per-em="2048" ascent="1597" descent="-451" />
<missing-glyph horiz-adv-x="409" />
<glyph unicode="&#xfb01;" horiz-adv-x="1312" d="M51 918v100h162v49q0 243 134 379.5t370 136.5q89 0 162.5 -27t120.5 -85t47 -138q0 -67 -40 -109t-102 -42q-70 0 -106.5 40.5t-32.5 116.5l84 25q10 30 10 47q0 90 -160 90q-292 0 -292 -340v-143h696v-922l156 -14v-82h-504v82l153 14v822h-501v-822l225 -14v-82h-576 v82l156 14v822h-162z" />
<glyph unicode="&#xfb02;" horiz-adv-x="1302" d="M51 918v100h162v96q0 214 113.5 341.5t322.5 127.5q177 0 250 -119l178 72h23v-1440l155 -14v-82h-495v82l145 14v1075l17 183h-11q-9 -53 -41 -80t-77 -27q-61 0 -89.5 35t-25.5 96l61 19q6 18 6 35q0 69 -112 69q-66 0 -111.5 -21.5t-69.5 -62t-34 -88t-10 -108.5v-203 h270v-100h-270v-822l204 -14v-82h-555v82l156 14v822h-162z" />
<glyph unicode="&#xfb03;" horiz-adv-x="1972" d="M51 918v100h162v49q0 215 117 347t327 132q113 0 188.5 -59t80.5 -148q60 114 176 179t274 65q137 0 230.5 -69t93.5 -189q0 -67 -37 -105t-100 -38q-66 0 -103.5 44.5t-34.5 112.5l80 23q19 71 -18 105t-127 34q-293 0 -293 -340v-143h696v-922l156 -14v-82h-504v82 l154 14v822h-502v-822l225 -14v-82h-575v82l155 14v822h-464v-822l184 -14v-82h-535v82l156 14v822h-162zM408 1018h464v61q0 89 21 174q-34 -43 -90 -43q-55 0 -81.5 34.5t-23.5 94.5l60 21q8 21 8 43q0 61 -113 61q-245 0 -245 -280v-166z" />
<glyph unicode="&#xfb04;" horiz-adv-x="1964" d="M51 918v100h162v49q0 215 117 347t327 132q109 0 180 -50.5t87 -127.5q52 98 151 156.5t236 58.5q177 0 250 -119l178 72h22v-1440l156 -14v-82h-496v82l146 14v1075q0 73 16 183h-10q-9 -53 -41.5 -80t-77.5 -27q-61 0 -89.5 35t-25.5 96l62 19q6 18 6 35q0 69 -113 69 q-66 0 -111.5 -21.5t-69.5 -62t-34 -88t-10 -108.5v-203h270v-100h-270v-822l205 -14v-82h-555v82l155 14v822h-466v-822l184 -14v-82h-535v82l156 14v822h-162zM408 1018h466v80q0 77 19 151q-31 -39 -90 -39q-55 0 -81.5 34.5t-23.5 94.5l60 21q8 21 8 43q0 61 -113 61 q-245 0 -245 -280v-166z" />
<glyph horiz-adv-x="2048" />
<glyph horiz-adv-x="2048" />
<glyph unicode="&#xd;" horiz-adv-x="2048" />
<glyph unicode=" "  horiz-adv-x="409" />
<glyph unicode="&#x09;" horiz-adv-x="409" />
<glyph unicode="&#xa0;" horiz-adv-x="409" />
<glyph unicode="!" horiz-adv-x="784" d="M262 109q0 56 34 92.5t95 36.5q60 0 95.5 -32t35.5 -95q0 -60 -33.5 -95.5t-95.5 -35.5q-68 0 -99.5 37.5t-31.5 91.5zM279 1300q0 62 32.5 98t91.5 36q57 0 86 -35t29 -96q0 -56 -19.5 -164t-39 -266t-19.5 -336v-172h-96v174q0 175 -16 336.5t-32.5 269.5t-16.5 155z " />
<glyph unicode="&#x22;" horiz-adv-x="765" d="M150 1526q60 49 112 49q35 0 53.5 -20.5t18.5 -51.5q0 -36 -8 -88l-58 -323h-69zM453 1526q60 49 112 49q35 0 53.5 -20.5t18.5 -51.5q0 -36 -8 -88l-58 -323h-69z" />
<glyph unicode="#" horiz-adv-x="1226" d="M80 285l18 86h240l57 362h-241l16 88h238l41 266h94l-43 -266h313l39 266h94l-41 -266h248l-14 -88h-244l-57 -362h243l-14 -86h-242l-45 -285h-92l45 285h-313l-47 -285h-92l45 285h-246zM430 371h315l58 362h-316z" />
<glyph unicode="$" horiz-adv-x="1075" d="M141 377h72q41 -124 86 -188t133 -87l57 381q-166 38 -244.5 107t-78.5 205q0 139 99 233t282 94q27 0 41 -2l24 160l82 -10l-24 -160q24 -5 53 -14t48 -14t32 -5q18 0 27.5 7t19.5 24h45l12 -313h-65q-33 102 -77.5 153.5t-109.5 69.5l-51 -344q46 -11 78 -20.5 t72.5 -25t68.5 -32t57 -41t46 -54t28 -69t11 -86.5q0 -155 -110.5 -252.5t-307.5 -97.5q-31 0 -45 2l-25 -162l-84 10l25 160q-37 6 -89.5 19.5t-72.5 13.5q-7 0 -12 -2t-8.5 -3.5t-7.5 -7.5t-5 -8.5t-5.5 -12.5t-6.5 -13h-51zM330 862q0 -72 44 -106.5t148 -63.5l51 338 h-30q-95 0 -154 -45.5t-59 -122.5zM516 90h27q125 0 193.5 50.5t68.5 140.5q0 80 -50 115.5t-184 68.5z" />
<glyph unicode="%" horiz-adv-x="1515" d="M104 821q0 138 85.5 219.5t213.5 81.5q79 0 141.5 -27t104 -93t41.5 -164q0 -145 -86.5 -222t-208.5 -77q-137 0 -214 76t-77 206zM248 823q0 -94 39.5 -143t111.5 -49q146 0 146 203q0 194 -144 194q-153 0 -153 -205zM356 0l680 1100h123l-678 -1100h-125zM825 260 q0 138 85.5 219.5t213.5 81.5q124 0 205.5 -70.5t81.5 -214.5q0 -145 -86.5 -222t-208.5 -77q-137 0 -214 76.5t-77 206.5zM971 262q0 -94 39 -143t110 -49q146 0 146 200q0 100 -38 148.5t-106 48.5q-151 0 -151 -205z" />
<glyph unicode="&#x26;" horiz-adv-x="1560" d="M102 367q0 78 21 144t61.5 117t87.5 90t109 75q-80 153 -80 272q0 169 110.5 269t274.5 100q134 0 209.5 -68t75.5 -176q0 -35 -6 -65.5t-20.5 -57.5t-30 -49t-43.5 -44.5t-52.5 -40t-65 -39.5t-72.5 -38.5t-83 -40.5q126 -192 414 -506q99 165 121 420l-168 14v80h417 v-80l-141 -16q-48 -308 -162 -483q117 -109 205 -109q23 0 41 7.5t36.5 27.5t30 63t15.5 107l80 -8q-5 -355 -244 -355q-78 0 -135.5 22.5t-122.5 74.5l-31 24q-146 -121 -362 -121q-90 0 -174.5 23.5t-156.5 69t-115.5 122.5t-43.5 175zM305 449q0 -161 101 -255t249 -94 q129 0 224 66q-258 248 -453 549q-121 -102 -121 -266zM485 1130q0 -117 74 -249q146 74 203 144t57 161q0 73 -41.5 107t-101.5 34q-81 0 -136 -52t-55 -145z" />
<glyph unicode="'" horiz-adv-x="462" d="M150 1526q60 49 112 49q35 0 53.5 -20.5t18.5 -51.5q0 -36 -8 -88l-58 -323h-69z" />
<glyph unicode="(" horiz-adv-x="616" d="M133 643q0 155 35 305.5t93.5 270.5t119.5 210.5t127 159.5l61 -41q-252 -431 -252 -878q0 -469 240 -928l-57 -43q-64 68 -124.5 159.5t-117 211.5t-91 270t-34.5 303z" />
<glyph unicode=")" horiz-adv-x="616" d="M41 -260q252 431 252 878q0 469 -240 928l58 43q64 -67 124.5 -159t117 -212t90.5 -270t34 -303q0 -155 -35 -305.5t-93.5 -270.5t-119.5 -210.5t-127 -159.5z" />
<glyph unicode="*" horiz-adv-x="999" d="M164 1071q0 57 72 76l235 70l-303 86q-2 12 -2 40q0 40 15.5 68.5t49.5 28.5q38 0 95 -47l155 -125l-51 293q52 41 96 41q31 0 46.5 -17.5t15.5 -44.5q0 -39 -8 -76l-50 -198l140 125q52 49 102 49q64 0 64 -92q0 -8 -5 -43l-296 -88l210 -68q31 -10 47 -17t30 -23 t14 -38q0 -54 -91 -96l-217 188l45 -276q-52 -41 -96 -41q-31 0 -47 16.5t-16 44.5q0 32 12 74l55 184l-225 -190q-92 40 -92 96z" />
<glyph unicode="+" horiz-adv-x="1228" d="M150 565v119h391v401h133v-401h405v-119h-405v-428h-133v428h-391z" />
<glyph unicode="," horiz-adv-x="534" d="M109 135q0 62 41.5 99.5t101.5 37.5q87 0 131.5 -59t44.5 -150q0 -103 -55.5 -189.5t-184.5 -190.5l-43 47q102 97 135 153t33 103q0 65 -41 71l-63 -61q-40 14 -70 50t-30 89z" />
<glyph unicode="-" horiz-adv-x="690" d="M102 512v162h486v-162h-486z" />
<glyph unicode="." horiz-adv-x="555" d="M129 127q0 64 38.5 105.5t108.5 41.5q68 0 109 -36.5t41 -108.5q0 -68 -38.5 -108.5t-108.5 -40.5q-78 0 -114 42.5t-36 104.5z" />
<glyph unicode="/" horiz-adv-x="780" d="M27 -199l604 1827h123l-602 -1827h-125z" />
<glyph unicode="0" horiz-adv-x="1210" d="M68 537q0 121 30.5 220t82.5 166t123 112.5t149 66t163 20.5q82 0 156 -18t142.5 -61t118.5 -106.5t80 -161.5t30 -220q0 -121 -30.5 -219.5t-82.5 -164t-122 -110.5t-146.5 -64.5t-159.5 -19.5q-254 0 -394 147.5t-140 412.5zM293 549q0 -239 80.5 -358t232.5 -119 q161 0 236.5 118.5t75.5 366.5q0 467 -310 467q-150 0 -232.5 -116.5t-82.5 -358.5z" />
<glyph unicode="1" horiz-adv-x="813" d="M63 1047l410 53h62v-1002l208 -16v-82h-647v80l236 18v877l-258 -19z" />
<glyph unicode="2" horiz-adv-x="1103" d="M82 786q0 106 60 184t154.5 115t207.5 37q108 0 188 -28t124.5 -77t65.5 -107.5t21 -127.5q0 -80 -27.5 -153.5t-89.5 -150.5t-169.5 -155t-260.5 -155v-8h291q75 0 123.5 12t79 41t46 67.5t28.5 102.5h71l-14 -383h-868v96q145 83 251.5 166.5t165.5 150t93.5 136 t44.5 118t10 101.5q0 254 -229 254q-96 0 -153.5 -34.5t-57.5 -92.5q0 -29 14 -57h67q17 -56 17 -101q0 -48 -34.5 -76t-88.5 -28q-61 0 -96 41t-35 112z" />
<glyph unicode="3" horiz-adv-x="1013" d="M23 -78q0 66 38 108t99 42t93 -31t32 -88q0 -37 -11 -74h-67q-8 -16 -8 -35q0 -71 176 -71q167 0 248.5 90t81.5 252q0 66 -15.5 116t-47 84.5t-68.5 57.5t-91 45q-94 -23 -198 -33l-13 94q178 16 273.5 88.5t95.5 225.5q0 115 -59.5 172t-169.5 57q-94 0 -144.5 -34.5 t-31.5 -88.5h61q14 -47 14 -82q0 -46 -32 -74t-80 -28q-56 0 -89.5 35t-33.5 96q0 86 55 150t140.5 95t187.5 31q178 0 286.5 -80.5t108.5 -224.5q0 -125 -73.5 -205t-229.5 -139q375 -50 375 -369q0 -90 -32 -164t-84 -123t-121.5 -82.5t-142.5 -48t-149 -14.5 q-374 0 -374 250z" />
<glyph unicode="4" horiz-adv-x="1169" d="M47 92v109l631 899h178v-899h158l12 139h84v-379h-84l-12 131h-160v-397h-201v397h-606zM164 201h489v667h-10z" />
<glyph unicode="5" horiz-adv-x="1042" d="M41 -78q0 66 38 108t99 42t93 -31t32 -88q0 -40 -10 -74h-68q-23 -49 22 -80.5t154 -31.5q320 0 320 387q0 144 -59.5 226.5t-182.5 82.5q-78 0 -143 -28.5t-139 -82.5l-54 27l72 696l33 25h508q34 0 51.5 21t30.5 69l69 -10q-24 -170 -51.5 -216t-116.5 -46h-426 l-59 -439q132 90 289 90q108 0 187.5 -31t125 -86.5t67 -123.5t21.5 -150q0 -242 -141.5 -374t-390.5 -132q-56 0 -106 6.5t-99.5 24t-85.5 45t-58 72t-22 102.5z" />
<glyph unicode="6" horiz-adv-x="1107" d="M100 580q0 383 151.5 588.5t401.5 205.5q147 0 230.5 -62.5t83.5 -166.5q0 -68 -34 -102.5t-85 -34.5t-83 27t-32 81q0 13 8 53l58 11q4 16 4 26q0 74 -139 74q-81 0 -143.5 -33t-111 -104t-75 -193t-29.5 -291q43 69 138.5 120.5t205.5 51.5q78 0 143 -21t118.5 -66 t83.5 -125t30 -189q0 -203 -124 -328t-341 -125q-226 0 -342.5 142t-116.5 461zM313 408q0 -148 62 -240t190 -92q133 0 190.5 88t57.5 256q0 156 -56 230.5t-169 74.5q-82 0 -160 -50.5t-98 -123.5q-17 -72 -17 -143z" />
<glyph unicode="7" horiz-adv-x="956" d="M74 711l14 389h864v-66q-148 -275 -243 -473t-138.5 -322.5t-57 -194.5t-13.5 -138q0 -85 32 -150l-61 -63q-205 8 -205 198q0 115 88.5 282t430.5 719q5 8 8.5 14t7.5 12h-406q-51 0 -83 -2.5t-59 -12t-41.5 -21t-27.5 -38t-20 -55t-17 -78.5h-73z" />
<glyph unicode="8" horiz-adv-x="1116" d="M82 342q0 154 104 247t287 107v6q-163 13 -252.5 96.5t-89.5 215.5q0 160 116 259t312 99q200 0 315 -89.5t115 -248.5q0 -136 -90.5 -225.5t-249.5 -106.5v-6q189 -13 287 -102t98 -242q0 -180 -126.5 -277.5t-348.5 -97.5q-226 0 -351.5 94t-125.5 271zM297 356 q0 -136 68 -209t194 -73q260 0 260 284q0 277 -260 277q-126 0 -194 -69.5t-68 -209.5zM334 1018q0 -128 60.5 -190t164.5 -62q223 0 223 256q0 126 -57 189t-166 63q-108 0 -166.5 -67t-58.5 -189z" />
<glyph unicode="9" horiz-adv-x="1118" d="M92 666q0 207 124.5 331.5t342.5 124.5q222 0 339.5 -168t117.5 -514q0 -201 -38 -349.5t-110 -239.5t-169.5 -135t-223.5 -44q-162 0 -243.5 71t-81.5 181q0 73 37 113.5t98 40.5q49 0 82.5 -27t33.5 -86q0 -37 -10 -71h-63q-15 -27 -15 -52q0 -75 160 -75 q165 0 253.5 161.5t88.5 474.5q-50 -79 -137 -122t-189 -43q-175 0 -286 107.5t-111 320.5zM303 672q0 -334 217 -334q160 0 244 119q41 57 41 213q0 181 -61 269.5t-191 88.5q-250 0 -250 -356z" />
<glyph unicode=":" horiz-adv-x="555" d="M135 127q0 64 39 105.5t109 41.5q68 0 108.5 -36.5t40.5 -108.5q0 -68 -38.5 -108.5t-108.5 -40.5q-78 0 -114 42.5t-36 104.5zM135 805q0 64 39 105.5t109 41.5q68 0 108.5 -36.5t40.5 -108.5q0 -68 -38.5 -109t-108.5 -41q-78 0 -114 43t-36 105z" />
<glyph unicode=";" horiz-adv-x="534" d="M115 135q0 62 41.5 99.5t101.5 37.5q87 0 131.5 -59t44.5 -150q0 -103 -55 -189.5t-184 -190.5l-43 47q101 97 134 152.5t33 103.5q0 65 -40 71l-64 -61q-40 14 -70 50t-30 89zM135 805q0 64 39 105.5t109 41.5q68 0 108.5 -36.5t40.5 -108.5q0 -68 -38.5 -109 t-108.5 -41q-78 0 -114 43t-36 105z" />
<glyph unicode="&#x3c;" horiz-adv-x="1228" d="M152 479v158l925 391v-133l-794 -334l794 -338v-141z" />
<glyph unicode="=" horiz-adv-x="1228" d="M150 338v119h929v-119h-929zM150 678v119h929v-119h-929z" />
<glyph unicode="&#x3e;" horiz-adv-x="1228" d="M152 82v141l794 338l-794 334v133l925 -391v-158z" />
<glyph unicode="?" horiz-adv-x="1071" d="M119 1163q0 121 110.5 196t282.5 75q181 0 285 -90.5t104 -229.5q0 -151 -133 -276l-262 -248v-236h-92v377q0 35 22 57l174 177q57 57 76 98t19 92q0 91 -66.5 139.5t-167.5 48.5q-195 0 -195 -90q0 -17 5 -30h57q16 -43 16 -80q0 -53 -32.5 -84t-79.5 -31q-61 0 -92 37 t-31 98zM330 109q0 56 34 92.5t95 36.5q60 0 95.5 -32t35.5 -95q0 -60 -33.5 -95.5t-95.5 -35.5q-68 0 -99.5 37.5t-31.5 91.5z" />
<glyph unicode="@" horiz-adv-x="1738" d="M123 348q0 237 94 422.5t275 293t423 107.5q153 0 281.5 -44.5t222 -128t145.5 -211t52 -287.5q0 -126 -30.5 -226.5t-83 -162t-119.5 -93.5t-142 -32q-104 0 -162.5 41.5t-74.5 109.5q-40 -64 -105 -105.5t-145 -41.5q-58 0 -104 17t-75 45.5t-48 69t-27 84.5t-8 95 q0 129 34 230t91 160t124 88.5t140 29.5q118 0 204 -76l35 62h121l-65 -373q-25 -154 -25 -217q0 -74 28 -105.5t89 -31.5q100 0 176 112.5t76 304.5q0 288 -154.5 446.5t-464.5 158.5q-146 0 -269.5 -49.5t-213.5 -141.5t-140.5 -231.5t-50.5 -311.5q0 -140 38 -251.5 t102.5 -184.5t153.5 -121.5t185 -69t203 -20.5q272 0 459 158l51 -60q-91 -85 -230.5 -133.5t-281.5 -48.5q-129 0 -244 26.5t-214.5 84t-171.5 141t-113 204t-41 267.5zM655 313q0 -225 146 -225q74 0 136.5 64.5t74.5 146.5l55 352q-72 72 -172 72q-63 0 -110.5 -36 t-75 -96t-41 -130.5t-13.5 -147.5z" />
<glyph unicode="A" horiz-adv-x="1390" d="M6 0v80l144 16l512 1350h75l494 -1350l153 -16v-80h-565v80l172 16l-117 346h-481l-125 -346l166 -16v-80h-428zM432 553h410l-193 555h-6z" />
<glyph unicode="B" horiz-adv-x="1282" d="M78 0v82l174 14v1243l-174 13v82h469q133 0 232 -17t175 -55.5t115 -106t39 -163.5q0 -276 -309 -330v-4q178 -25 279.5 -116.5t101.5 -235.5q0 -96 -32 -167.5t-87 -116.5t-138.5 -73t-175.5 -38.5t-210 -10.5h-459zM467 94h96q208 0 293.5 75t85.5 232 q0 150 -86.5 219.5t-280.5 69.5h-108v-596zM467 788h53q197 0 282 75t85 216q0 136 -81.5 198t-273.5 62h-65v-551z" />
<glyph unicode="C" horiz-adv-x="1333" d="M88 719q0 178 51.5 319.5t142.5 232t212 138t264 47.5q70 0 141.5 -15t120.5 -30.5t65 -15.5q21 0 31.5 9.5t22.5 33.5h63l15 -428h-72q-43 191 -134 268.5t-253 77.5q-434 0 -434 -635q0 -305 112.5 -474t329.5 -169q164 0 258 83t139 275h72l-14 -436h-68 q-18 34 -29 41q-10 6 -24 6q-12 0 -63.5 -17.5t-130 -35t-156.5 -17.5q-152 0 -272 43t-208 131.5t-135 232t-47 335.5z" />
<glyph unicode="D" horiz-adv-x="1474" d="M76 0v82l176 14v1243l-176 13v82h506q153 0 274.5 -23t220 -74.5t164 -131.5t100.5 -196.5t35 -267.5q0 -169 -43 -298.5t-117.5 -212.5t-184.5 -135.5t-233 -73.5t-274 -21h-448zM467 92h90q579 0 582 637q0 120 -16 212t-50.5 160t-84 113.5t-121 73t-155 39.5 t-192.5 12h-53v-1247z" />
<glyph unicode="E" horiz-adv-x="1267" d="M90 0v80l162 16v1241l-162 17v80h1008l16 -385h-76q-16 77 -37 127t-48.5 84t-72 51.5t-97.5 24.5t-134 7h-182v-563h106q121 0 169.5 52t72.5 192h64v-606h-68q-13 86 -27.5 132.5t-44 77.5t-71.5 40.5t-115 9.5h-86v-584h180q119 0 195.5 17t128 61.5t78.5 111 t45 175.5h75l-16 -459h-1063z" />
<glyph unicode="F" horiz-adv-x="1193" d="M90 0v80l162 14v1243l-162 17v80h1008l18 -394h-76q-16 77 -37 128t-49.5 86.5t-72 54t-98 26.5t-134.5 8h-182v-577h106q121 0 169.5 52t72.5 192h64v-607h-68q-13 86 -27.5 132.5t-44 78t-71.5 41t-115 9.5h-86v-568l264 -16v-80h-641z" />
<glyph unicode="G" horiz-adv-x="1447" d="M88 709q0 181 53 325t146 235t214.5 139t262.5 48q72 0 139 -15t114 -29.5t70 -14.5q21 0 31.5 9t22.5 32h61l15 -428h-74q-47 185 -133 265.5t-252 80.5q-434 0 -434 -641q0 -306 112 -471.5t330 -165.5q80 0 154 40t110 105v283l-188 16v80h538v-80l-135 -14v-514h-65 q-9 18 -15.5 27.5t-22 18.5t-36.5 9q-25 0 -78 -18t-127 -36t-151 -18q-152 0 -272 43t-208 130.5t-135 229t-47 329.5z" />
<glyph unicode="H" horiz-adv-x="1570" d="M90 0v80l162 16v1241l-162 15v82h539v-80l-162 -15v-551h637v549l-162 15v82h539v-80l-162 -15v-1243l162 -16v-80h-539v80l162 16v582h-637v-582l162 -16v-80h-539z" />
<glyph unicode="I" horiz-adv-x="718" d="M90 0v80l162 14v1243l-162 15v82h539v-80l-162 -15v-1243l162 -14v-82h-539z" />
<glyph unicode="J" horiz-adv-x="946" d="M57 217q0 81 42 123.5t100 42.5q55 0 87.5 -29t32.5 -88q0 -38 -14 -84h-69q-5 -20 -5 -26q0 -36 34 -57t100 -21q94 0 129.5 54.5t35.5 176.5v1030l-194 15v80h563v-80l-154 -13v-892q0 -222 -98 -347t-289 -125q-147 0 -224 65.5t-77 174.5z" />
<glyph unicode="K" horiz-adv-x="1370" d="M98 0v82l154 14v1243l-154 15v80h523v-80l-154 -15v-573l82 20l455 553l-154 15v80h430v-80l-139 -15l-426 -514l516 -731l123 -14v-80h-529v80l146 14l-412 586l-92 -25v-559l154 -14v-82h-523z" />
<glyph unicode="L" horiz-adv-x="1212" d="M90 0v80l162 16v1239l-162 17v82h594v-80l-217 -19v-1241h127q82 0 139.5 5.5t108 20.5t83.5 40t60.5 66.5t44.5 97.5t29 135h74l-19 -459h-1024z" />
<glyph unicode="M" horiz-adv-x="1843" d="M119 0v82l133 14v1245l-133 13v80h446l365 -1090h8l356 1090h451v-80l-154 -13v-1245l154 -14v-82h-516v82l153 14v1241h-8l-438 -1337h-102l-461 1335h-8v-1239l141 -14v-82h-387z" />
<glyph unicode="N" horiz-adv-x="1478" d="M119 0v82l133 12v1243l-133 15v82h430l598 -1028h8v931l-133 15v82h379v-82l-133 -15v-1351h-103l-792 1337h-8v-1229l153 -12v-82h-399z" />
<glyph unicode="O" d="M88 713q0 336 184.5 539.5t479.5 203.5q292 0 462 -192.5t170 -532.5q0 -353 -169 -553.5t-480 -200.5q-312 0 -479.5 191t-167.5 545zM326 715q0 -88 7 -162.5t24 -149t48 -131t75.5 -101t110 -68t148.5 -23.5q96 0 168.5 33t117 89t72 140t38 175t10.5 206 q0 113 -9.5 202t-36.5 172.5t-70.5 138t-115.5 87.5t-168 33q-102 0 -177.5 -33t-121.5 -88t-73.5 -140t-37 -174.5t-9.5 -205.5z" />
<glyph unicode="P" horiz-adv-x="1271" d="M78 0v82l174 14v1243l-174 15v80h520q107 0 193 -11.5t163 -40t128.5 -73t81.5 -114.5t30 -161q0 -105 -34 -184t-91 -128t-142 -80t-176.5 -42.5t-205.5 -11.5h-78v-492l256 -14v-82h-645zM467 682h104q201 0 293 84t92 258q0 172 -87.5 243.5t-284.5 71.5h-117v-657z " />
<glyph unicode="Q" d="M88 713q0 336 184.5 539.5t479.5 203.5q292 0 462 -192.5t170 -532.5q0 -322 -141 -514t-407 -221v-12q74 -14 110 -54.5t62 -117.5q31 -92 53.5 -125t68.5 -33q40 0 59 29t28 102l79 -4q-7 -110 -57.5 -172t-169.5 -62q-63 0 -108 17t-74 54t-46.5 77t-33.5 102 q-17 64 -38 85.5t-52 21.5q-41 0 -133 -76l-52 61q74 70 138 91v8q-288 22 -435 204.5t-147 520.5zM326 715q0 -90 7 -165t24 -149.5t48 -130.5t75.5 -100t110 -67t148.5 -23q97 0 169 32.5t116.5 88t72 139.5t38 175.5t10.5 207.5t-9.5 205t-36.5 172.5t-70.5 137.5 t-115 86t-168.5 32q-102 0 -177.5 -33t-121.5 -87.5t-73.5 -139.5t-37 -174.5t-9.5 -206.5z" />
<glyph unicode="R" horiz-adv-x="1359" d="M78 0v82l174 16v1239l-174 17v80h485q85 0 151.5 -5t134.5 -18t117 -37.5t88 -61t59 -91.5t20 -127q0 -89 -28.5 -154t-84.5 -104.5t-127.5 -60t-167.5 -27.5v-7q199 -22 278.5 -98.5t79.5 -253.5v-182q0 -60 14 -85.5t64 -25.5q49 0 68.5 40t36.5 145l84 -15 q-16 -119 -38 -168q-55 -118 -218 -118q-129 0 -180.5 59t-51.5 188v262q0 105 -53.5 152t-192.5 47h-149v-590l215 -16v-82h-604zM467 782h43q201 0 293 75t92 230q0 139 -87 194.5t-286 55.5h-55v-555z" />
<glyph unicode="S" horiz-adv-x="1169" d="M123 446h78q20 -76 39 -127.5t49.5 -101t69 -78t95.5 -46t132 -17.5q161 0 249.5 72.5t88.5 201.5q0 57 -19.5 99.5t-41 68.5t-85.5 52t-103 37.5t-144 38.5q-1 0 -1.5 0.5t-1.5 0.5q-80 20 -133.5 39t-105.5 50t-82 70t-48 97t-18 135q0 80 26.5 153t78 133t137 96 t192.5 36q70 0 130.5 -15t100.5 -30.5t58 -15.5q21 0 31.5 9.5t22.5 33.5h61l14 -418h-75q-46 187 -128.5 263.5t-218.5 76.5q-126 0 -202 -61t-76 -162q0 -48 16.5 -86t42.5 -64.5t70 -49t86 -36.5t104 -31q50 -13 75.5 -20t71.5 -22t71.5 -27t63 -33t59 -41.5t47 -51 t38.5 -64.5t22 -78t9 -95q0 -204 -125 -332.5t-352 -128.5q-83 0 -152 15t-113 30t-67 15q-6 0 -10.5 -1.5t-8.5 -3t-7.5 -6t-5.5 -7t-5.5 -9.5t-5 -10.5t-5 -13t-5.5 -13.5h-64z" />
<glyph unicode="T" horiz-adv-x="1302" d="M57 1022l21 412h1147l20 -412h-80q-12 64 -26 110t-29.5 81t-39 57t-48 36.5t-63.5 21t-76.5 9t-96.5 2.5h-26v-1243l194 -14v-82h-604v82l195 14v1243h-29q-59 0 -96.5 -2.5t-76.5 -9t-63.5 -21t-48 -36.5t-39 -57t-29.5 -81t-26 -110h-80z" />
<glyph unicode="U" d="M78 1352v82h522v-82l-154 -13v-872q0 -87 15.5 -153t52.5 -120t105 -82t165 -28q179 0 260.5 90.5t81.5 282.5v880l-153 15v82h416v-82l-148 -15v-874q0 -118 -25.5 -204.5t-82.5 -151.5t-154 -97.5t-234 -32.5q-124 0 -215.5 24t-160 77.5t-103.5 145t-35 220.5v895z " />
<glyph unicode="V" horiz-adv-x="1361" d="M6 1352v82h574v-82l-201 -17l360 -1032h6l369 1032l-182 17v82h424v-82l-131 -17l-494 -1355h-82l-506 1355z" />
<glyph unicode="W" horiz-adv-x="2068" d="M6 1354v80h574v-80l-201 -19l326 -1024h8l293 746l-107 278l-137 19v80h565v-80l-201 -19l369 -997h8l322 997l-187 19v80h424v-80l-123 -19l-442 -1355h-80l-356 940l-373 -940h-80l-465 1355z" />
<glyph unicode="X" horiz-adv-x="1349" d="M27 1350v84h581v-84l-200 -15l303 -506l288 506l-155 15v84h420v-84l-136 -15l-358 -594l414 -645l139 -14v-82h-582v82l197 14l-324 522l-301 -522l166 -14v-82h-424v82l138 14l356 623l-385 616z" />
<glyph unicode="Y" horiz-adv-x="1259" d="M6 1350v84h574v-84l-195 -15l303 -561h8l305 561l-172 15v84h424v-84l-135 -15l-379 -671v-568l174 -14v-82h-563v82l174 14v568l-381 671z" />
<glyph unicode="Z" horiz-adv-x="1269" d="M109 0v90l763 1243h-274q-56 0 -92.5 -2t-77 -9t-66.5 -20t-53.5 -35.5t-45.5 -55.5t-34.5 -80t-29.5 -109h-74l20 412h975v-101l-758 -1235h338q98 0 166.5 21.5t113.5 69t71 111t45 159.5h75l-24 -459h-1038z" />
<glyph unicode="[" horiz-adv-x="620" d="M188 -317v1927h385v-92h-112q-75 0 -97 -18.5t-22 -88.5v-1528q0 -27 1.5 -44t7 -30t12 -19t22 -10t30.5 -4.5t44 -0.5h114v-92h-385z" />
<glyph unicode="\" horiz-adv-x="782" d="M27 1628h125l604 -1827h-127z" />
<glyph unicode="]" horiz-adv-x="620" d="M41 -225h115q78 0 97 16t19 92v1528q0 70 -21.5 88.5t-96.5 18.5h-113v92h385v-1927h-385v92z" />
<glyph unicode="^" horiz-adv-x="1146" d="M123 614l387 746h100l414 -746l-104 -45l-361 650l-334 -652z" />
<glyph unicode="_" horiz-adv-x="1036" d="M6 -141h1024v-76h-1024v76z" />
<glyph unicode="`" horiz-adv-x="1024" d="M352 1493q0 43 32.5 62.5t72.5 9.5l69 -17l136 -385l-48 -24l-223 272q-39 45 -39 82z" />
<glyph unicode="a" horiz-adv-x="1042" d="M88 240q0 297 436 297h142v139q0 142 -44.5 210t-160.5 68q-172 0 -172 -86q0 -6 4 -26h67q13 -54 13 -74q0 -51 -32.5 -80t-84.5 -29q-56 0 -87.5 33t-31.5 94q0 112 101 183t254 71q195 0 281.5 -87.5t86.5 -299.5v-467q0 -66 13.5 -90t50.5 -24q30 0 67 12l19 -70 q-66 -34 -150 -34q-82 0 -127 34t-57 111q-47 -70 -126.5 -109t-174.5 -39q-129 0 -208 63.5t-79 199.5zM303 252q0 -80 33.5 -121t112.5 -41q84 0 150.5 51.5t66.5 139.5v170h-115q-133 0 -190.5 -51.5t-57.5 -147.5z" />
<glyph unicode="b" horiz-adv-x="1200" d="M59 1446v78l328 12v-668q44 74 128.5 123t201.5 49q190 0 289.5 -132t99.5 -390q0 -262 -121.5 -401.5t-331.5 -139.5q-200 0 -323 113l-80 -110h-57v1452zM387 340q0 -111 76 -185.5t184 -74.5q136 0 189 102.5t53 319.5q0 210 -51.5 310.5t-186.5 100.5 q-137 0 -211 -100q-53 -63 -53 -170v-303z" />
<glyph unicode="c" horiz-adv-x="1003" d="M84 479q0 270 137 415.5t363 145.5q154 0 252 -76.5t98 -199.5q0 -85 -42 -126.5t-106 -41.5q-56 0 -93.5 32.5t-37.5 86.5q0 49 21 90h69q7 28 7 45q0 94 -162 94q-145 0 -219 -109t-74 -315q0 -207 67.5 -314.5t221.5 -107.5q180 0 256 183l90 -31q-10 -32 -26.5 -64.5 t-48.5 -71.5t-72.5 -68t-103 -49t-136.5 -20q-222 0 -341.5 134t-119.5 368z" />
<glyph unicode="d" horiz-adv-x="1191" d="M84 489q0 259 117.5 405t320.5 146q181 0 285 -112v502l-164 16v78l358 12v-1440l144 -14v-82h-320l-16 154q-111 -177 -326 -177q-196 0 -297.5 137t-101.5 375zM299 510q0 -67 5.5 -121t21 -109.5t42 -93t71 -61t104.5 -23.5q108 0 186 75.5t78 184.5v340 q0 100 -64 164q-73 70 -180 70q-75 0 -127.5 -29.5t-82 -87.5t-42 -133t-12.5 -176z" />
<glyph unicode="e" horiz-adv-x="1030" d="M84 496q0 253 133 398.5t340 145.5q189 0 292 -111t103 -333q0 -28 -4 -86h-651q0 -199 66.5 -304.5t218.5 -105.5q103 0 165 42.5t101 133.5l90 -30q-41 -125 -141.5 -197t-253.5 -72q-227 0 -343 139.5t-116 379.5zM297 618h457v46q0 282 -203 282q-114 0 -179 -92.5 t-75 -235.5z" />
<glyph unicode="f" horiz-adv-x="702" d="M51 918v100h162v96q0 216 100.5 342.5t294.5 126.5q115 0 183.5 -53.5t68.5 -143.5q0 -64 -33 -101.5t-92 -37.5q-61 0 -91 35q-26 31 -26 83v11l60 21q6 21 6 39q0 65 -92 65q-47 0 -81.5 -16t-54 -41t-31 -64t-14.5 -75t-3 -84v-203h270v-100h-270v-822l245 -14v-82 h-596v82l156 14v822h-162z" />
<glyph unicode="g" horiz-adv-x="1028" d="M39 -211q0 78 38 125.5t103 85.5q-71 33 -71 113q0 19 4 36.5t15.5 36t19.5 30.5t30.5 33t32 30t40 34.5t40.5 34.5q-95 33 -146 115.5t-51 191.5q0 77 25.5 146t74.5 122.5t127.5 85t176.5 31.5q136 0 219 -57q38 43 88 72.5t100 29.5q36 0 64 -14v-115l-193 -28 q105 -105 105 -250q0 -170 -109 -269.5t-274 -99.5q-50 0 -117 13q-52 -47 -74 -73.5t-22 -47.5q0 -27 18.5 -35t65.5 -8h192q78 0 134.5 -5.5t111.5 -22t89.5 -45.5t55.5 -77.5t21 -116.5q0 -79 -26.5 -137t-86 -101t-160.5 -64t-245 -21q-114 0 -195.5 15.5t-129.5 45.5 t-69.5 69t-21.5 91zM199 -172q0 -39 12 -65.5t43.5 -48t93.5 -32t156 -10.5q159 0 239 39t80 133q0 33 -13 55.5t-34.5 36t-61 20.5t-80 9t-104.5 2h-280q-51 -69 -51 -139zM293 678q0 -146 53 -209t150 -63q190 0 190 276q0 144 -50 206t-142 62q-88 0 -144.5 -65.5 t-56.5 -206.5z" />
<glyph unicode="h" horiz-adv-x="1243" d="M57 0v82l146 14v1334l-146 14v80l338 12v-569l-8 -129h8q46 87 134.5 144.5t211.5 57.5q162 0 237 -84t75 -264v-596l135 -14v-82h-465v82l135 14v594q0 111 -38.5 162t-149.5 51q-116 0 -194.5 -73.5t-78.5 -206.5v-527l140 -14v-82h-480z" />
<glyph unicode="i" horiz-adv-x="622" d="M66 0v82l153 14v824l-153 14v80l348 12v-930l155 -14v-82h-503zM166 1366q0 57 32 92t95 35q129 0 129 -125q0 -60 -33 -92.5t-94 -32.5q-68 0 -98.5 33.5t-30.5 89.5z" />
<glyph unicode="j" horiz-adv-x="563" d="M-203 -244q0 59 34.5 98.5t96.5 39.5q46 0 78.5 -29t38.5 -82l-70 -41v-7q0 -79 84 -79q30 0 53 9t38.5 22t26 40t16 50.5t8.5 68t3.5 77t0.5 91.5v906l-154 14v80l348 12v-917q0 -71 -7 -136t-30.5 -142t-61.5 -132.5t-105.5 -93t-157.5 -37.5q-103 0 -171.5 48.5 t-68.5 139.5zM141 1366q0 57 32 92t95 35q129 0 129 -125q0 -60 -33 -92.5t-94 -32.5q-68 0 -98.5 33.5t-30.5 89.5z" />
<glyph unicode="k" horiz-adv-x="1161" d="M66 0v82l137 14v1334l-137 14v80l331 12v-1440l133 -14v-82h-464zM420 553v20l366 347v12l-127 8v78h420v-82l-145 -14l-326 -310l416 -518l111 -12v-82h-451v80l102 8v10z" />
<glyph unicode="l" horiz-adv-x="600" d="M57 0v82l146 14v1334l-146 14v80l340 12v-1440l156 -14v-82h-496z" />
<glyph unicode="m" horiz-adv-x="1837" d="M70 0v82l133 14v824l-133 14v80l295 12l10 -192h8q117 206 348 206q118 0 186 -50t91 -154q119 204 338 204q161 0 231 -83t70 -265v-596l135 -14v-82h-465v82l135 14v594q0 56 -6 91t-23.5 65t-54 43.5t-94.5 13.5q-105 0 -178.5 -72.5t-73.5 -209.5v-525l135 -14v-82 h-465v82l135 14v594q0 56 -6 91t-23.5 65t-54 43.5t-94.5 13.5q-104 0 -178 -71t-74 -193v-543l140 -14v-82h-467z" />
<glyph unicode="n" horiz-adv-x="1251" d="M78 0v82l133 14v824l-133 14v80l293 14l14 -194h6q50 87 140.5 146.5t218.5 59.5q162 0 236.5 -83.5t74.5 -264.5v-596l135 -14v-82h-465v82l135 14v594q0 111 -38.5 162t-149.5 51q-114 0 -193 -70t-79 -190v-547l139 -14v-82h-467z" />
<glyph unicode="o" horiz-adv-x="1107" d="M84 504q0 241 129.5 388.5t347.5 147.5q153 0 258.5 -68t155 -185t49.5 -275q0 -242 -127 -388.5t-348 -146.5q-224 0 -344.5 143.5t-120.5 383.5zM297 518q0 -74 6.5 -134.5t24 -119.5t46 -99t75 -64.5t108.5 -24.5q74 0 125.5 34t78.5 96t38.5 134t11.5 164 q0 72 -6 131.5t-23.5 118.5t-46 99t-75.5 64.5t-109 24.5q-75 0 -127 -33.5t-78.5 -96t-37.5 -133t-11 -161.5z" />
<glyph unicode="p" horiz-adv-x="1208" d="M68 -328l133 15v1233l-133 14v80l292 12l9 -180h10q47 85 137.5 139.5t208.5 54.5q190 0 289.5 -132t99.5 -390q0 -259 -119.5 -400t-312.5 -141q-184 0 -287 86v-372l250 -19v-82h-577v82zM395 332q0 -114 69.5 -183t186.5 -69q132 0 189 104.5t57 317.5 q0 210 -51.5 310.5t-186.5 100.5q-129 0 -210 -100q-54 -68 -54 -170v-311z" />
<glyph unicode="q" horiz-adv-x="1187" d="M84 489q0 261 120.5 406t336.5 145q92 0 174 -35t127 -87l96 100h63v-1331l156 -15v-82h-524v82l176 15v456q-104 -166 -322 -166q-197 0 -300 137t-103 375zM299 510q0 -71 5.5 -126t21.5 -110t43 -91t72.5 -58.5t107.5 -22.5q109 0 183.5 75t74.5 185v340 q0 100 -64 164q-73 70 -182 70q-145 0 -203.5 -108.5t-58.5 -317.5z" />
<glyph unicode="r" horiz-adv-x="921" d="M70 0v82l133 14v824l-133 14v80l295 12l14 -178h8q50 90 119.5 141t175.5 51q89 0 149 -50.5t60 -139.5q0 -81 -38 -120.5t-105 -39.5q-62 0 -97.5 37t-34.5 102l66 27q4 16 4 25q0 49 -68 49q-80 0 -150.5 -84.5t-70.5 -175.5v-574l221 -14v-82h-548z" />
<glyph unicode="s" horiz-adv-x="915" d="M100 -23v367h80q6 -88 53 -150t112.5 -89t141.5 -27q98 0 151.5 45.5t53.5 132.5q0 34 -8.5 60.5t-28.5 45t-39 31t-53.5 23t-57 15.5t-65.5 13q-135 27 -189 55q-128 69 -130 230q0 132 96.5 221.5t237.5 89.5q117 0 196 -47q21 -12 37 -12q32 0 35 59h68v-319h-80 q-58 225 -258 225q-80 0 -133.5 -42.5t-53.5 -108.5q0 -28 8 -50.5t28 -39t37 -27t53 -20.5t56.5 -15t65.5 -14q41 -8 67.5 -14.5t64.5 -19t62.5 -27t52 -38t43 -52.5t26 -70t10.5 -91q0 -148 -89.5 -244t-254.5 -96q-143 0 -269 76q-16 8 -24 8q-13 0 -21 -17.5t-12 -66.5 h-70z" />
<glyph unicode="t" horiz-adv-x="776" d="M49 918v100h154v264l147 41h47v-305h226v-100h-226v-666q0 -86 24 -122t83 -36t96 35.5t62 126.5l77 -20q-32 -134 -100.5 -196.5t-196.5 -62.5q-114 0 -176.5 59t-62.5 183v699h-154z" />
<glyph unicode="u" horiz-adv-x="1234" d="M57 934v80l330 12v-702q0 -109 39 -159t147 -50q115 0 191 71.5t76 204.5v529l-140 14v80l334 12v-930l133 -14v-82h-297l-10 174h-8q-48 -85 -135 -141t-209 -56q-163 0 -239 84.5t-76 264.5v594z" />
<glyph unicode="v" horiz-adv-x="1032" d="M6 936v82h451v-82l-142 -8l238 -729h8l238 729l-142 8v82h365v-82l-102 -8l-328 -928h-160l-334 928z" />
<glyph unicode="w" horiz-adv-x="1585" d="M6 936v82h449v-82l-142 -8l228 -731h8l207 561l-58 172l-82 6v82h385v-82l-106 -8l258 -731h8l195 731l-142 8v82h365v-82l-102 -8l-277 -928h-160l-223 600h-10l-229 -600h-160l-320 928z" />
<glyph unicode="x" horiz-adv-x="1095" d="M16 936v82h478v-82l-140 -12v-13l201 -284l227 284v13l-108 12v82h356v-82l-102 -12l-307 -373l331 -455l127 -14v-82h-510v82l150 14v13l-221 309l-226 -309v-13l131 -14v-82h-374v82l102 14l301 406l-305 422z" />
<glyph unicode="y" horiz-adv-x="1032" d="M8 -238q0 60 36 102t99 42q52 0 84 -34t33 -101l-78 -43q-6 -37 16 -53.5t66 -16.5q61 0 91.5 48t88.5 216l19 58l-361 948l-92 8v82h453v-82l-141 -8l237 -699h8l236 699l-141 8v82h364v-82l-102 -8l-392 -1086q-21 -59 -38 -97t-41 -75t-51.5 -57t-67 -32.5 t-90.5 -12.5q-100 0 -168 50.5t-68 143.5z" />
<glyph unicode="z" horiz-adv-x="1021" d="M94 0v84l588 844h-229q-65 0 -99.5 -6t-68.5 -33t-58 -76.5t-55 -140.5h-74l21 346h792v-90l-587 -838h247q66 0 110.5 15t76.5 53.5t52.5 86.5t45.5 132h74l-21 -377h-815z" />
<glyph unicode="{" horiz-adv-x="686" d="M109 608v92q38 1 68 9t60.5 28.5t47 64t16.5 107.5q0 80 -29.5 228.5t-29.5 212.5q0 115 60 179t179 64q63 0 135 -26l-20 -82q-50 16 -88 16q-46 0 -73 -27.5t-27 -107.5q0 -40 27.5 -202t27.5 -236q0 -41 -7 -76t-18 -59.5t-30 -45t-35.5 -33.5t-42.5 -24.5t-44 -18 t-46 -14.5q40 -13 66 -23.5t59 -32.5t52 -48.5t32.5 -70t13.5 -99.5q0 -73 -27.5 -253.5t-27.5 -215.5q0 -81 31.5 -111t86.5 -30q50 0 88 18l25 -84q-65 -29 -141 -29q-125 0 -190.5 66t-65.5 182q0 60 29.5 228.5t29.5 244.5q0 205 -192 209z" />
<glyph unicode="|" horiz-adv-x="665" d="M272 -260v1888h121v-1888h-121z" />
<glyph unicode="}" horiz-adv-x="686" d="M41 -293l25 84q38 -18 88 -18q55 0 86.5 30t31.5 111q0 35 -27.5 215.5t-27.5 253.5q0 56 13.5 99.5t32.5 70t52 48.5t59 32.5t66 23.5q-28 8 -46 14.5t-44 18t-42.5 24.5t-35.5 33.5t-30 45t-18 59.5t-7 76q0 74 27.5 236t27.5 202q0 80 -27 107.5t-73 27.5 q-38 0 -88 -16l-21 82q72 26 136 26q119 0 179 -64t60 -179q0 -64 -29.5 -212.5t-29.5 -228.5q0 -64 16.5 -107.5t47 -64t60.5 -28.5t68 -9v-92q-192 -4 -192 -209q0 -76 29.5 -244.5t29.5 -228.5q0 -116 -65.5 -182t-190.5 -66q-76 0 -141 29z" />
<glyph unicode="~" horiz-adv-x="1021" d="M82 614q28 88 82 144.5t137 56.5q82 0 238 -39q148 -37 231 -37q42 0 63 18t48 72l59 -18q-71 -203 -201 -203q-102 0 -278 45q-136 35 -209 35q-34 0 -60.5 -19.5t-56.5 -74.5z" />
<glyph unicode="&#xa1;" horiz-adv-x="784" d="M268 866q0 54 31.5 91.5t99.5 37.5q62 0 95.5 -35.5t33.5 -95.5q0 -63 -35.5 -95t-95.5 -32q-61 0 -95 36.5t-34 92.5zM285 -326q0 47 16.5 155.5t32.5 270t16 336.5v174h96v-172q0 -178 19.5 -336t39 -266t19.5 -164q0 -61 -28.5 -96t-85.5 -35q-59 0 -92 35.5t-33 97.5 z" />
<glyph unicode="&#xa2;" horiz-adv-x="985" d="M98 535q0 223 127.5 350t339.5 127l49 209l82 -17l-47 -200q114 -22 182 -91.5t68 -164.5q0 -72 -36.5 -110t-94.5 -38q-50 0 -81.5 26.5t-31.5 69.5t17 78h63q6 18 6 37q0 40 -28.5 66.5t-81.5 37.5l-160 -696q38 -14 96 -14q100 0 159.5 51.5t92.5 146.5l80 -20 q-15 -54 -39.5 -100t-66.5 -92t-109.5 -72.5t-153.5 -26.5q-45 0 -88 6l-53 -237l-82 18l53 238q-128 42 -195 150.5t-67 267.5zM309 559q0 -212 86 -295l150 656q-121 -9 -178.5 -105t-57.5 -256z" />
<glyph unicode="&#xa3;" horiz-adv-x="1132" d="M74 610v99h172q-41 125 -41 243q0 194 127 307t336 113q177 0 266.5 -70.5t89.5 -195.5q0 -78 -37 -117t-98 -39q-57 0 -93 31t-36 88q0 33 8 66h84q6 21 6 41q0 100 -164 100q-142 0 -198 -76t-56 -231v-260h422v-99h-422v-123q0 -166 -65 -264q85 49 157 49 q56 0 114 -21.5t97 -47t81 -47t71 -21.5q48 0 71.5 40t30.5 142l74 -4q-15 -336 -221 -336q-37 0 -74.5 8.5t-61.5 17.5t-79 32l-297 127q-58 -180 -166 -180q-40 0 -63 23.5t-23 55.5q0 56 55.5 104t141.5 54q41 84 41 184q0 84 -43 207h-207z" />
<glyph unicode="&#xa4;" horiz-adv-x="1085" d="M94 940l64 64l184 -154q83 57 199 57q117 0 186 -51l193 139l51 -55l-156 -176q49 -73 49 -184t-57 -199l160 -195l-58 -55l-192 158q-73 -51 -182 -51q-121 0 -191 49l-188 -154l-56 55l154 185q-51 75 -51 200q0 108 51 185zM334 573q0 -51 9 -90.5t30.5 -73t63 -51.5 t100.5 -18q99 0 148.5 65.5t49.5 167.5q0 108 -48.5 172t-154.5 64q-103 0 -150.5 -66t-47.5 -170z" />
<glyph unicode="&#xa5;" horiz-adv-x="1218" d="M68 1018v82h522v-82l-144 -14l211 -359h9l233 359l-131 14v82h383v-82l-135 -14l-217 -330h241v-92h-301l-30 -47v-138h331v-92h-331v-209l174 -14v-82h-564v82l175 14v209h-332v92h332v138l-29 47h-303v92h246l-203 330z" />
<glyph unicode="&#xa6;" horiz-adv-x="665" d="M272 -260v895h121v-895h-121zM272 844v784h121v-784h-121z" />
<glyph unicode="&#xa7;" horiz-adv-x="1220" d="M143 549q0 91 47.5 165.5t128.5 123.5q-96 86 -96 231q0 170 132 278.5t317 108.5q63 0 120.5 -12t110 -37.5t84 -73.5t31.5 -112q0 -58 -33.5 -98t-93.5 -40q-57 0 -91 30.5t-34 84.5q0 27 4 43l68 16q4 24 4 33q0 43 -38 60.5t-128 17.5q-147 0 -219 -63t-72 -168 q0 -48 23 -83.5t62 -57.5t89.5 -39t106 -32t111 -32.5t106 -43.5t89.5 -61.5t62 -91t23 -127.5q0 -87 -43.5 -160.5t-122.5 -123.5q86 -86 86 -224q0 -92 -36 -167t-97 -122t-139 -72.5t-164 -25.5q-67 0 -127.5 12t-114.5 38t-85.5 74t-31.5 112q0 57 34.5 97t94.5 40 q56 0 89.5 -30t33.5 -85q0 -27 -4 -43l-68 -16q-4 -24 -4 -33q0 -43 41.5 -60.5t141.5 -17.5q137 0 205.5 62t68.5 170q0 56 -29 96.5t-76 63t-107.5 43t-123.5 35t-123.5 40t-107.5 57.5t-76 88.5t-29 131.5zM293 625q0 -51 33.5 -86.5t92.5 -58t122 -39.5t141 -42.5 t131 -56.5q94 58 94 168q0 56 -32.5 94.5t-91 61t-120.5 38t-140 38t-130 49.5q-100 -63 -100 -166z" />
<glyph unicode="&#xa8;" horiz-adv-x="1024" d="M201 1346q0 45 29 76.5t81 31.5q50 0 81.5 -27t31.5 -81q0 -51 -29 -82t-82 -31q-58 0 -85 33t-27 80zM600 1346q0 45 29.5 76.5t81.5 31.5q50 0 81 -27t31 -81q0 -51 -28.5 -82t-81.5 -31q-59 0 -86 32.5t-27 80.5z" />
<glyph unicode="&#xa9;" horiz-adv-x="1599" d="M123 627q0 155 53 283.5t145.5 214t216.5 132t265 46.5q312 0 493 -176t181 -472q0 -200 -85.5 -354.5t-239.5 -239t-353 -84.5q-164 0 -294 49.5t-213 138t-126 206t-43 256.5zM227 629q0 -264 154.5 -420t421.5 -156q264 0 418.5 160.5t154.5 429.5q0 274 -158.5 429 t-414.5 155q-252 0 -414 -162.5t-162 -435.5zM438 651q0 186 112.5 294t270.5 108q54 0 111 -20.5t61 -20.5q5 0 8.5 1.5t6.5 5.5t5 6.5t5 8.5l4 8h39l6 -243h-47q-23 103 -68 144.5t-125 41.5q-231 0 -231 -334q0 -160 59 -249t176 -89q80 0 127 45t72 148h47l-8 -244h-41 q-1 3 -4 8.5t-5 8.5t-5 7t-6.5 5.5t-8.5 1.5q-7 0 -32.5 -10.5t-66.5 -21.5t-87 -11q-166 0 -270.5 100.5t-104.5 300.5z" />
<glyph unicode="&#xaa;" horiz-adv-x="802" d="M76 762q0 109 80.5 155t230.5 46h102v96q0 94 -30 138t-111 44q-110 0 -110 -53q0 -13 2 -19h51q8 -36 8 -53q0 -37 -25 -59.5t-67 -22.5q-45 0 -70.5 26.5t-25.5 69.5q0 78 74 127.5t194 49.5q145 0 212.5 -59.5t67.5 -203.5v-305q0 -43 8.5 -59t32.5 -16q26 0 50 8 l16 -58q-58 -30 -127 -30q-63 0 -96.5 24t-42.5 76q-31 -45 -86.5 -72.5t-128.5 -27.5q-94 0 -151.5 42.5t-57.5 135.5zM256 774q0 -53 22.5 -79.5t73.5 -26.5q56 0 96.5 32t40.5 93v106h-73q-87 0 -123.5 -31.5t-36.5 -93.5z" />
<glyph unicode="&#xab;" horiz-adv-x="1007" d="M86 461q0 26 23 67l360 297l55 -59l-245 -293l243 -317l-55 -60l-326 283q-55 47 -55 82zM446 461q0 26 23 67l360 297l56 -59l-246 -293l244 -317l-56 -60l-325 283q-56 47 -56 82z" />
<glyph unicode="&#xac;" horiz-adv-x="1228" d="M150 565v119h929v-352h-127v233h-802z" />
<glyph unicode="&#xad;" horiz-adv-x="690" d="M109 512v162h485v-162h-485z" />
<glyph unicode="&#xae;" horiz-adv-x="940" d="M82 969q0 175 111.5 281t277.5 106q178 0 282.5 -101.5t104.5 -271.5q0 -171 -108.5 -278t-280.5 -107q-186 0 -286.5 103t-100.5 268zM168 971q0 -141 79 -222t224 -81q140 0 221.5 83.5t81.5 225.5q0 146 -84 228.5t-219 82.5q-138 0 -220.5 -85t-82.5 -232zM299 793 v32l45 6v314l-45 8v33h147q40 0 67.5 -3.5t53 -12.5t38.5 -28t13 -48q0 -48 -31.5 -70t-90.5 -27v-2q59 -5 82.5 -26t23.5 -70v-39q0 -17 4.5 -24t20.5 -7q14 0 18.5 10t9.5 40l31 -5q-3 -22 -6 -33t-10.5 -26t-23.5 -22t-40 -7q-82 0 -82 68v68q0 28 -16 40.5t-57 12.5h-27 v-144l57 -6v-32h-182zM424 1014q62 0 87.5 15.5t25.5 51.5q0 40 -21 52t-82 12h-10v-131z" />
<glyph unicode="&#xaf;" horiz-adv-x="1024" d="M233 1266v143h558v-143h-558z" />
<glyph unicode="&#xb0;" horiz-adv-x="673" d="M82 1284q0 104 69 175t191 71q120 0 185 -66t65 -176q0 -109 -68 -180.5t-188 -71.5q-124 0 -189 68.5t-65 179.5zM164 1284q0 -81 45 -130.5t131 -49.5q78 0 125 50.5t47 129.5q0 83 -47.5 131.5t-130.5 48.5q-78 0 -124 -49.5t-46 -130.5z" />
<glyph unicode="&#xb1;" horiz-adv-x="1228" d="M150 0v119h929v-119h-929zM150 565v119h391v358h133v-358h405v-119h-405v-356h-133v356h-391z" />
<glyph unicode="&#xb2;" horiz-adv-x="665" d="M37 819v84l180 197q112 120 154.5 200t42.5 162q0 150 -135 150q-54 0 -85.5 -18.5t-31.5 -49.5q0 -13 6 -28h45q10 -30 10 -56q0 -34 -23.5 -54t-64.5 -20q-44 0 -68 27t-24 70q0 88 78 141t201 53q142 0 208 -57t66 -145q0 -68 -30 -125t-105 -133.5t-236 -212.5 l-67 -58v-2h223q91 0 125.5 27t48.5 96h61l-8 -248h-571z" />
<glyph unicode="&#xb3;" horiz-adv-x="681" d="M29 975q0 44 27 73t73 29q41 0 63.5 -21t22.5 -55q0 -19 -8 -55h-47q-6 -12 -6 -24q0 -50 116 -50q187 0 187 183q0 77 -36.5 119.5t-98.5 68.5q-51 -13 -121 -18l-11 65q109 8 167.5 52t58.5 137q0 66 -34 99.5t-97 33.5q-49 0 -76 -15.5t-27 -42.5q0 -10 2 -16h43 q11 -29 11 -49q0 -32 -23.5 -52t-62.5 -20q-42 0 -65.5 24.5t-23.5 63.5q0 76 74 124t189 48q122 0 192 -50.5t70 -135.5q0 -144 -205 -207v-2q123 -15 186.5 -71t63.5 -148q0 -120 -100 -188t-252 -68q-122 0 -187 45.5t-65 122.5z" />
<glyph unicode="&#xb4;" horiz-adv-x="1024" d="M350 1169l139 373l76 23q36 8 67.5 -10.5t31.5 -59.5q0 -35 -41 -86l-228 -266z" />
<glyph unicode="&#xb5;" horiz-adv-x="1175" d="M164 -418v1426l194 18v-702q0 -108 36.5 -158.5t133.5 -50.5q111 0 187 71.5t76 204.5v617l194 18v-840q0 -66 13.5 -90t50.5 -24q29 0 67 12l19 -70q-66 -34 -150 -34q-90 0 -139 49t-43 145q-23 -41 -45.5 -71t-55 -61t-75 -48t-92.5 -17q-161 0 -220 158 q15 -149 62 -487q7 -48 -30.5 -71t-90.5 -13z" />
<glyph unicode="&#xb6;" horiz-adv-x="1300" d="M125 981q0 114 41 201.5t115.5 142t173.5 82t221 27.5h506v-91l-133 -14v-1622h-117v1624h-141v-1624h-117v821h-25q-109 0 -200 24t-165.5 75.5t-116.5 141.5t-42 212z" />
<glyph unicode="&#xb7;" horiz-adv-x="555" d="M129 612q0 64 39 106t108 42q68 0 109 -37t41 -109q0 -68 -38.5 -108.5t-108.5 -40.5q-78 0 -114 42.5t-36 104.5z" />
<glyph unicode="&#xb8;" horiz-adv-x="1024" d="M297 -332q0 34 18.5 53t46.5 19q57 0 70 -55l-35 -33q0 -43 74 -43q100 0 100 115q0 108 -100 108q-48 0 -78 -10l-12 43l98 162h82l-82 -133q21 6 51 6q86 0 132.5 -44.5t46.5 -119.5q0 -78 -60 -132.5t-174 -54.5q-82 0 -130 35t-48 84z" />
<glyph unicode="&#xb9;" horiz-adv-x="540" d="M41 1628l264 37h68v-764l137 -8v-74h-451v72l150 10v666l-160 -11z" />
<glyph unicode="&#xba;" horiz-adv-x="841" d="M70 942q0 165 95.5 265t260.5 100q172 0 259 -97t87 -262q0 -167 -93 -265.5t-261 -98.5q-172 0 -260 96.5t-88 261.5zM252 952q0 -68 7.5 -118t25.5 -92t53 -63.5t86 -21.5q93 0 129.5 74.5t36.5 210.5q0 67 -7 115.5t-25 90.5t-52.5 63.5t-85.5 21.5q-50 0 -84.5 -20.5 t-52 -61t-24.5 -87.5t-7 -112z" />
<glyph unicode="&#xbb;" horiz-adv-x="1009" d="M135 156l246 295l-244 315l56 59l325 -282q30 -25 42.5 -44t12.5 -42q0 -31 -22 -64l-361 -297zM496 156l245 295l-243 315l55 59l326 -282q30 -25 42.5 -44t12.5 -42q0 -29 -23 -64l-360 -297z" />
<glyph unicode="&#xbc;" horiz-adv-x="1843" d="M119 1407l264 37h68v-764l137 -8v-74h-451v72l150 10v666l-160 -11zM383 -23l889 1479h123l-887 -1479h-125zM954 225v94l381 527h146v-527h94l8 84h72v-247h-72l-8 69h-96v-143l96 -10v-72h-383v72l129 10v143h-367zM1038 319h283v379h-6z" />
<glyph unicode="&#xbd;" horiz-adv-x="1843" d="M139 1407l264 37h68v-764l137 -8v-74h-450v72l149 10v666l-160 -11zM403 -23l889 1479h123l-887 -1479h-125zM1108 0v84l180 197q112 120 154.5 200t42.5 162q0 150 -135 150q-54 0 -85.5 -18.5t-31.5 -49.5q0 -14 6 -29h45q10 -30 10 -55q0 -34 -23.5 -54t-64.5 -20 q-44 0 -68 27t-24 70q0 88 78 141t201 53q142 0 208 -57.5t66 -145.5q0 -68 -30 -125t-105 -133.5t-236 -212.5l-67 -57v-2h223q91 0 125.5 27t48.5 96h62l-9 -248h-571z" />
<glyph unicode="&#xbe;" horiz-adv-x="1843" d="M80 754q0 44 27 73t73 29q41 0 63.5 -21t22.5 -55q0 -19 -8 -55h-47q-6 -12 -6 -25q0 -49 117 -49q186 0 186 183q0 77 -36.5 119.5t-98.5 68.5q-51 -13 -121 -18l-10 65q109 8 167 51.5t58 136.5q0 66 -34 100t-97 34q-49 0 -76 -15.5t-27 -42.5q0 -7 3 -16h43 q10 -27 10 -49q0 -32 -23.5 -52t-62.5 -20q-42 0 -65 24.5t-23 63.5q0 76 73.5 124t188.5 48q122 0 192 -50.5t70 -135.5q0 -144 -205 -207v-2q123 -15 186.5 -71t63.5 -148q0 -120 -100 -188t-252 -68q-122 0 -187 45.5t-65 122.5zM414 -23l889 1479h122l-886 -1479h-125z M1004 225v94l380 527h146v-527h94l8 84h72v-247h-72l-8 69h-96v-143l96 -10v-72h-383v72l129 10v143h-366zM1087 319h283v379h-6z" />
<glyph unicode="&#xbf;" horiz-adv-x="1071" d="M164 -139q0 151 133 276l262 248v236h92v-377q0 -36 -22 -58l-174 -176q-57 -57 -76 -98t-19 -92q0 -91 66.5 -140t167.5 -49q194 0 194 90q0 21 -4 31h-57q-16 43 -16 80q0 53 32.5 84t79.5 31q61 0 92 -37t31 -98q0 -121 -110.5 -196t-282.5 -75q-181 0 -285 90.5 t-104 229.5zM475 864q0 60 33.5 95.5t95.5 35.5q68 0 99.5 -37.5t31.5 -91.5q0 -56 -34 -92.5t-95 -36.5q-60 0 -95.5 32t-35.5 95z" />
<glyph unicode="&#xc0;" horiz-adv-x="1390" d="M6 0v80l144 16l512 1350h75l494 -1350l153 -16v-80h-565v80l172 16l-117 346h-481l-125 -346l166 -16v-80h-428zM432 553h410l-193 555h-6zM465 1755q0 60 70 80l73 23l285 -302l-37 -49l-311 158q-43 22 -61.5 40t-18.5 50z" />
<glyph unicode="&#xc1;" horiz-adv-x="1390" d="M6 0v80l144 16l512 1350h75l494 -1350l153 -16v-80h-565v80l172 16l-117 346h-481l-125 -346l166 -16v-80h-428zM432 553h410l-193 555h-6zM512 1554l285 301l73 -22q70 -20 70 -80q0 -32 -20.5 -52t-59.5 -38l-309 -154z" />
<glyph unicode="&#xc2;" horiz-adv-x="1390" d="M6 0v80l144 16l512 1350h75l494 -1350l153 -16v-80h-565v80l172 16l-117 346h-481l-125 -346l166 -16v-80h-428zM385 1563l270 270q32 16 62 16q18 0 33 -7.5t24.5 -16t32.5 -33.5l211 -227l-43 -54l-268 175l-283 -177zM432 553h410l-193 555h-6z" />
<glyph unicode="&#xc3;" horiz-adv-x="1390" d="M6 0v80l144 16l512 1350h75l494 -1350l153 -16v-80h-565v80l172 16l-117 346h-481l-125 -346l166 -16v-80h-428zM375 1552q29 99 79.5 149t135.5 50q16 0 30 -1t28.5 -4t23.5 -5t24.5 -8t21.5 -8.5t24 -10.5t24 -10q79 -31 121 -31q36 0 57.5 18t42.5 70l57 -16 q-55 -201 -208 -201q-75 0 -183 47q-82 33 -121 33q-29 0 -52.5 -19t-45.5 -71zM432 553h410l-193 555h-6z" />
<glyph unicode="&#xc4;" horiz-adv-x="1390" d="M6 0v80l144 16l512 1350h75l494 -1350l153 -16v-80h-565v80l172 16l-117 346h-481l-125 -346l166 -16v-80h-428zM393 1669q0 45 29.5 77t81.5 32q50 0 81 -27.5t31 -81.5q0 -51 -28.5 -82t-81.5 -31q-58 0 -85.5 33t-27.5 80zM432 553h410l-193 555h-6zM793 1669 q0 45 29 77t81 32q50 0 81.5 -27.5t31.5 -81.5q0 -51 -29 -82t-82 -31q-59 0 -85.5 32.5t-26.5 80.5z" />
<glyph unicode="&#xc5;" horiz-adv-x="1390" d="M6 0v80l144 16l512 1350h75l494 -1350l153 -16v-80h-565v80l172 16l-117 346h-481l-125 -346l166 -16v-80h-428zM432 553h410l-193 555h-6zM496 1692q0 83 55 138.5t156 55.5q97 0 149.5 -51.5t52.5 -138.5q0 -90 -54.5 -145.5t-152.5 -55.5q-104 0 -155 52.5t-51 144.5z M602 1692q0 -48 24 -79.5t79 -31.5q96 0 96 111q0 47 -24.5 78.5t-76.5 31.5q-50 0 -74 -32t-24 -78z" />
<glyph unicode="&#xc6;" horiz-adv-x="2021" d="M6 0v80l144 16l649 1241l-156 17v80h1208l17 -385h-76q-16 77 -37 127t-48.5 84t-72 51.5t-97.5 24.5t-134 7h-182v-604h106q121 0 169.5 52t72.5 192h63v-606h-67q-13 86 -27.5 132.5t-44 77.5t-71.5 40.5t-115 9.5h-86v-543h180q119 0 195 17t127.5 61.5t78.5 111 t45 175.5h76l-16 -459h-1063v80l162 16v535h-451l-272 -535l166 -16v-80h-443zM614 741h392v598h-78z" />
<glyph unicode="&#xc7;" horiz-adv-x="1333" d="M88 719q0 178 51.5 319.5t142.5 232t212 138t264 47.5q70 0 141.5 -15t120.5 -30.5t65 -15.5q21 0 31.5 9.5t22.5 33.5h63l15 -428h-72q-43 191 -134 268.5t-253 77.5q-434 0 -434 -635q0 -305 112.5 -474t329.5 -169q164 0 258 83t139 275h72l-14 -436h-68 q-12 26 -22.5 36.5t-30.5 10.5q-13 0 -63 -17t-126.5 -34.5t-152.5 -18.5l-51 -83q21 6 51 6q86 0 132 -44.5t46 -119.5q0 -78 -60 -132.5t-174 -54.5q-82 0 -130 35t-48 84q0 34 19 53t47 19q56 0 69 -55l-34 -33q0 -43 73 -43q101 0 101 115q0 108 -101 108q-47 0 -77 -10 l-13 43l70 117q-137 10 -243.5 57.5t-185 135.5t-120 225.5t-41.5 318.5z" />
<glyph unicode="&#xc8;" horiz-adv-x="1267" d="M90 0v80l162 16v1241l-162 17v80h1008l16 -385h-76q-16 77 -37 127t-48.5 84t-72 51.5t-97.5 24.5t-134 7h-182v-563h106q121 0 169.5 52t72.5 192h64v-606h-68q-13 86 -27.5 132.5t-44 77.5t-71.5 40.5t-115 9.5h-86v-584h180q119 0 195.5 17t128 61.5t78.5 111 t45 175.5h75l-16 -459h-1063zM393 1755q0 60 70 80l74 23l284 -302l-37 -49l-311 158q-43 22 -61.5 40t-18.5 50z" />
<glyph unicode="&#xc9;" horiz-adv-x="1267" d="M90 0v80l162 16v1241l-162 17v80h1008l16 -385h-76q-16 77 -37 127t-48.5 84t-72 51.5t-97.5 24.5t-134 7h-182v-563h106q121 0 169.5 52t72.5 192h64v-606h-68q-13 86 -27.5 132.5t-44 77.5t-71.5 40.5t-115 9.5h-86v-584h180q119 0 195.5 17t128 61.5t78.5 111 t45 175.5h75l-16 -459h-1063zM440 1554l285 301l74 -22q69 -19 69 -80q0 -32 -20.5 -52t-59.5 -38l-309 -154z" />
<glyph unicode="&#xca;" horiz-adv-x="1267" d="M90 0v80l162 16v1241l-162 17v80h1008l16 -385h-76q-16 77 -37 127t-48.5 84t-72 51.5t-97.5 24.5t-134 7h-182v-563h106q121 0 169.5 52t72.5 192h64v-606h-68q-13 86 -27.5 132.5t-44 77.5t-71.5 40.5t-115 9.5h-86v-584h180q119 0 195.5 17t128 61.5t78.5 111 t45 175.5h75l-16 -459h-1063zM313 1563l271 270q32 16 61 16q18 0 33 -7.5t24.5 -16t32.5 -33.5l211 -227l-43 -54l-268 175l-283 -177z" />
<glyph unicode="&#xcb;" horiz-adv-x="1267" d="M90 0v80l162 16v1241l-162 17v80h1008l16 -385h-76q-16 77 -37 127t-48.5 84t-72 51.5t-97.5 24.5t-134 7h-182v-563h106q121 0 169.5 52t72.5 192h64v-606h-68q-13 86 -27.5 132.5t-44 77.5t-71.5 40.5t-115 9.5h-86v-584h180q119 0 195.5 17t128 61.5t78.5 111 t45 175.5h75l-16 -459h-1063zM322 1669q0 45 29 77t81 32q50 0 81.5 -27.5t31.5 -81.5q0 -51 -29 -82t-82 -31q-58 0 -85 33t-27 80zM721 1669q0 45 29 77t81 32q50 0 81.5 -27.5t31.5 -81.5q0 -51 -28.5 -82t-81.5 -31q-59 0 -86 32.5t-27 80.5z" />
<glyph unicode="&#xcc;" horiz-adv-x="718" d="M90 0v80l162 14v1243l-162 15v82h539v-80l-162 -15v-1243l162 -14v-82h-539zM119 1755q0 61 69 80l74 23l285 -302l-37 -49l-311 158q-43 22 -61.5 40t-18.5 50z" />
<glyph unicode="&#xcd;" horiz-adv-x="718" d="M90 0v80l162 14v1243l-162 15v82h539v-80l-162 -15v-1243l162 -14v-82h-539zM166 1554l285 301l73 -22q70 -20 70 -80q0 -32 -20.5 -52t-59.5 -38l-309 -154z" />
<glyph unicode="&#xce;" horiz-adv-x="718" d="M39 1563l270 270q32 16 62 16q18 0 33 -7.5t24.5 -16t32.5 -33.5l211 -227l-43 -54l-269 175l-282 -177zM90 0v80l162 14v1243l-162 15v82h539v-80l-162 -15v-1243l162 -14v-82h-539z" />
<glyph unicode="&#xcf;" horiz-adv-x="718" d="M47 1669q0 45 29.5 77t81.5 32q50 0 81 -27.5t31 -81.5q0 -51 -28.5 -82t-81.5 -31q-58 0 -85.5 33t-27.5 80zM90 0v80l162 14v1243l-162 15v82h539v-80l-162 -15v-1243l162 -14v-82h-539zM446 1669q0 45 29.5 77t81.5 32q50 0 81.5 -27.5t31.5 -81.5q0 -51 -29 -82 t-82 -31q-59 0 -86 32.5t-27 80.5z" />
<glyph unicode="&#xd0;" horiz-adv-x="1474" d="M66 686v98h186v555l-176 13v82h506q153 0 274.5 -23t220 -74.5t164 -131.5t100.5 -196.5t35 -267.5q0 -169 -43 -298.5t-117.5 -212.5t-184.5 -135.5t-233 -73.5t-274 -21h-448v82l176 14v590h-186zM467 92h90q582 0 582 637q0 179 -36.5 298t-116.5 187.5t-191 96.5 t-275 28h-53v-555h377v-98h-377v-594z" />
<glyph unicode="&#xd1;" horiz-adv-x="1478" d="M119 0v82l133 12v1243l-133 15v82h430l598 -1028h8v931l-133 15v82h379v-82l-133 -15v-1351h-103l-792 1337h-8v-1229l153 -12v-82h-399zM451 1552q29 99 79.5 149t135.5 50q16 0 30 -1t28.5 -4t23.5 -5t24.5 -8t21.5 -8.5t24 -10.5t24 -10q79 -31 121 -31q36 0 57.5 18 t42.5 70l57 -16q-55 -201 -209 -201q-74 0 -182 47q-83 33 -121 33q-29 0 -52.5 -19t-45.5 -71z" />
<glyph unicode="&#xd2;" d="M88 713q0 336 184.5 539.5t479.5 203.5q292 0 462 -192.5t170 -532.5q0 -353 -169 -553.5t-480 -200.5q-312 0 -479.5 191t-167.5 545zM326 715q0 -88 7 -162.5t24 -149t48 -131t75.5 -101t110 -68t148.5 -23.5q96 0 168.5 33t117 89t72 140t38 175t10.5 206 q0 113 -9.5 202t-36.5 172.5t-70.5 138t-115.5 87.5t-168 33q-102 0 -177.5 -33t-121.5 -88t-73.5 -140t-37 -174.5t-9.5 -205.5zM514 1755q0 60 70 80l73 23l285 -302l-37 -49l-311 158q-43 22 -61.5 40t-18.5 50z" />
<glyph unicode="&#xd3;" d="M88 713q0 336 184.5 539.5t479.5 203.5q292 0 462 -192.5t170 -532.5q0 -353 -169 -553.5t-480 -200.5q-312 0 -479.5 191t-167.5 545zM326 715q0 -88 7 -162.5t24 -149t48 -131t75.5 -101t110 -68t148.5 -23.5q96 0 168.5 33t117 89t72 140t38 175t10.5 206 q0 113 -9.5 202t-36.5 172.5t-70.5 138t-115.5 87.5t-168 33q-102 0 -177.5 -33t-121.5 -88t-73.5 -140t-37 -174.5t-9.5 -205.5zM561 1554l285 301l74 -22q69 -19 69 -80q0 -32 -20.5 -52t-59.5 -38l-309 -154z" />
<glyph unicode="&#xd4;" d="M88 713q0 336 184.5 539.5t479.5 203.5q292 0 462 -192.5t170 -532.5q0 -353 -169 -553.5t-480 -200.5q-312 0 -479.5 191t-167.5 545zM326 715q0 -88 7 -162.5t24 -149t48 -131t75.5 -101t110 -68t148.5 -23.5q96 0 168.5 33t117 89t72 140t38 175t10.5 206 q0 113 -9.5 202t-36.5 172.5t-70.5 138t-115.5 87.5t-168 33q-102 0 -177.5 -33t-121.5 -88t-73.5 -140t-37 -174.5t-9.5 -205.5zM434 1563l271 270q32 16 61 16q18 0 33 -7.5t24.5 -16t32.5 -33.5l211 -227l-43 -54l-268 175l-283 -177z" />
<glyph unicode="&#xd5;" d="M88 713q0 336 184.5 539.5t479.5 203.5q292 0 462 -192.5t170 -532.5q0 -353 -169 -553.5t-480 -200.5q-312 0 -479.5 191t-167.5 545zM326 715q0 -88 7 -162.5t24 -149t48 -131t75.5 -101t110 -68t148.5 -23.5q96 0 168.5 33t117 89t72 140t38 175t10.5 206 q0 113 -9.5 202t-36.5 172.5t-70.5 138t-115.5 87.5t-168 33q-102 0 -177.5 -33t-121.5 -88t-73.5 -140t-37 -174.5t-9.5 -205.5zM424 1552q29 99 79.5 149t135.5 50q16 0 30 -1t28.5 -4t23.5 -5t24.5 -8t21.5 -8.5t24 -10.5t24 -10q79 -31 121 -31q36 0 57.5 18t42.5 70 l58 -16q-55 -201 -209 -201q-75 0 -183 47q-83 33 -120 33q-30 0 -53.5 -19t-45.5 -71z" />
<glyph unicode="&#xd6;" d="M88 713q0 336 184.5 539.5t479.5 203.5q292 0 462 -192.5t170 -532.5q0 -353 -169 -553.5t-480 -200.5q-312 0 -479.5 191t-167.5 545zM326 715q0 -88 7 -162.5t24 -149t48 -131t75.5 -101t110 -68t148.5 -23.5q96 0 168.5 33t117 89t72 140t38 175t10.5 206 q0 113 -9.5 202t-36.5 172.5t-70.5 138t-115.5 87.5t-168 33q-102 0 -177.5 -33t-121.5 -88t-73.5 -140t-37 -174.5t-9.5 -205.5zM442 1669q0 45 29.5 77t81.5 32q50 0 81.5 -27.5t31.5 -81.5q0 -51 -29 -82t-82 -31q-58 0 -85.5 33t-27.5 80zM842 1669q0 45 29 77t81 32 q50 0 81.5 -27.5t31.5 -81.5q0 -51 -29 -82t-82 -31q-59 0 -85.5 32.5t-26.5 80.5z" />
<glyph unicode="&#xd7;" horiz-adv-x="1228" d="M244 248l291 289l-281 278l92 84l275 -276l276 280l88 -88l-283 -278l279 -281q-16 -15 -43.5 -44t-44.5 -44l-277 283l-286 -289q-14 13 -28 27t-31 31.5t-27 27.5z" />
<glyph unicode="&#xd8;" d="M88 713q0 336 184.5 539.5t479.5 203.5q152 0 274 -55l92 176l96 -47l-96 -180q128 -90 197 -248t69 -371q0 -353 -169 -553.5t-480 -200.5q-173 0 -305 60l-94 -178l-94 49l96 184q-250 181 -250 621zM326 715q0 -318 94 -469l549 1046q-89 64 -224 64 q-102 0 -177.5 -33t-121.5 -88t-73.5 -140t-37 -174.5t-9.5 -205.5zM494 160q93 -80 245 -80q96 0 168.5 33t117 89t72 140t38 175t10.5 206q0 336 -101 485z" />
<glyph unicode="&#xd9;" d="M78 1352v82h522v-82l-154 -13v-872q0 -87 15.5 -153t52.5 -120t105 -82t165 -28q179 0 260.5 90.5t81.5 282.5v880l-153 15v82h416v-82l-148 -15v-874q0 -118 -25.5 -204.5t-82.5 -151.5t-154 -97.5t-234 -32.5q-124 0 -215.5 24t-160 77.5t-103.5 145t-35 220.5v895z M541 1755q0 61 69 80l74 23l285 -302l-37 -49l-311 158q-43 22 -61.5 40t-18.5 50z" />
<glyph unicode="&#xda;" d="M78 1352l153 -13v-895q0 -129 35 -220.5t103.5 -145t160 -77.5t215.5 -24q137 0 234 32.5t154 97.5t82.5 151.5t25.5 204.5v874l148 15v82h-416v-82l153 -15v-880q0 -192 -81.5 -282.5t-260.5 -90.5q-97 0 -165 28t-105 82t-52.5 120t-15.5 153v872l154 13v82h-522v-82z M588 1554l284 301l74 -22q70 -20 70 -80q0 -32 -20.5 -52t-59.5 -38l-309 -154z" />
<glyph unicode="&#xdb;" d="M78 1352l153 -13v-895q0 -129 35 -220.5t103.5 -145t160 -77.5t215.5 -24q137 0 234 32.5t154 97.5t82.5 151.5t25.5 204.5v874l148 15v82h-416v-82l153 -15v-880q0 -192 -81.5 -282.5t-260.5 -90.5q-97 0 -165 28t-105 82t-52.5 120t-15.5 153v872l154 13v82h-522v-82z M461 1563l270 270q32 16 62 16q18 0 33 -7.5t24.5 -16t32.5 -33.5l211 -227l-43 -54l-269 175l-282 -177z" />
<glyph unicode="&#xdc;" d="M78 1352v82h522v-82l-154 -13v-872q0 -87 15.5 -153t52.5 -120t105 -82t165 -28q179 0 260.5 90.5t81.5 282.5v880l-153 15v82h416v-82l-148 -15v-874q0 -118 -25.5 -204.5t-82.5 -151.5t-154 -97.5t-234 -32.5q-124 0 -215.5 24t-160 77.5t-103.5 145t-35 220.5v895z M459 1669q0 45 29 77t81 32q50 0 81.5 -27.5t31.5 -81.5q0 -51 -29 -82t-82 -31q-58 0 -85 33t-27 80zM858 1669q0 45 29.5 77t81.5 32q50 0 81 -27.5t31 -81.5q0 -51 -28.5 -82t-81.5 -31q-59 0 -86 32.5t-27 80.5z" />
<glyph unicode="&#xdd;" horiz-adv-x="1259" d="M6 1350v84h574v-84l-195 -15l303 -561h8l305 561l-172 15v84h424v-84l-135 -15l-379 -671v-568l174 -14v-82h-563v82l174 14v568l-381 671zM500 1554l284 301l74 -22q70 -20 70 -80q0 -32 -20.5 -52t-59.5 -38l-309 -154z" />
<glyph unicode="&#xde;" horiz-adv-x="1271" d="M78 0v82l174 14v1243l-174 15v80h645v-82l-256 -15v-170h131q107 0 193 -11.5t163 -39.5t128.5 -73t81.5 -114.5t30 -160.5q0 -105 -34 -184t-91 -128t-142 -80t-176.5 -42.5t-205.5 -11.5h-78v-226l256 -14v-82h-645zM467 416h104q201 0 293 84t92 258 q0 172 -87.5 243.5t-284.5 71.5h-117v-657z" />
<glyph unicode="&#xdf;" horiz-adv-x="1333" d="M57 0v82l156 14v1018q0 107 26 191t80.5 147.5t145.5 97t215 33.5q81 0 144.5 -16t102 -41t63.5 -60t34.5 -70t9.5 -73q0 -61 -22.5 -114.5t-55 -93t-64.5 -77t-54.5 -82.5t-22.5 -94q0 -46 25 -82t65.5 -61.5t89.5 -50.5t97.5 -56t89 -70t65.5 -100t25 -139 q0 -142 -92.5 -234t-239.5 -92q-58 0 -105.5 12t-72.5 25t-68 39q-16 8 -24 8q-25 0 -33 -73h-70v356h80q9 -132 84.5 -199t190.5 -67q88 0 142 44t54 132q0 54 -26 95.5t-68 69t-92 51.5t-100.5 51t-92.5 60t-68 85.5t-26 121.5q0 58 19.5 112t49 92.5t63.5 79.5t63.5 75 t49 78.5t19.5 89.5q0 170 -239 170q-70 0 -120 -18.5t-77 -45.5t-42 -70t-19 -79t-4 -86v-1186h-351z" />
<glyph unicode="&#xe0;" horiz-adv-x="1042" d="M88 240q0 297 436 297h142v139q0 142 -44.5 210t-160.5 68q-172 0 -172 -86q0 -6 4 -26h67q13 -54 13 -74q0 -51 -32.5 -80t-84.5 -29q-56 0 -87.5 33t-31.5 94q0 112 101 183t254 71q195 0 281.5 -87.5t86.5 -299.5v-467q0 -66 13.5 -90t50.5 -24q30 0 67 12l19 -70 q-66 -34 -150 -34q-82 0 -127 34t-57 111q-47 -70 -126.5 -109t-174.5 -39q-129 0 -208 63.5t-79 199.5zM303 252q0 -80 33.5 -121t112.5 -41q84 0 150.5 51.5t66.5 139.5v170h-115q-133 0 -190.5 -51.5t-57.5 -147.5zM309 1493q0 43 32.5 62.5t72.5 9.5l69 -17l135 -385 l-47 -24l-223 272q-39 45 -39 82z" />
<glyph unicode="&#xe1;" horiz-adv-x="1042" d="M88 240q0 297 436 297h142v139q0 142 -44.5 210t-160.5 68q-172 0 -172 -86q0 -6 4 -26h67q13 -54 13 -74q0 -51 -32.5 -80t-84.5 -29q-56 0 -87.5 33t-31.5 94q0 112 101 183t254 71q195 0 281.5 -87.5t86.5 -299.5v-467q0 -66 13.5 -90t50.5 -24q30 0 67 12l19 -70 q-66 -34 -150 -34q-82 0 -127 34t-57 111q-47 -70 -126.5 -109t-174.5 -39q-129 0 -208 63.5t-79 199.5zM303 252q0 -80 33.5 -121t112.5 -41q84 0 150.5 51.5t66.5 139.5v170h-115q-133 0 -190.5 -51.5t-57.5 -147.5zM375 1169l139 373l76 23q36 8 67 -10.5t31 -59.5 q0 -35 -41 -86l-227 -266z" />
<glyph unicode="&#xe2;" horiz-adv-x="1042" d="M88 240q0 297 436 297h142v139q0 142 -44.5 210t-160.5 68q-172 0 -172 -86q0 -6 4 -26h67q13 -54 13 -74q0 -51 -32.5 -80t-84.5 -29q-56 0 -87.5 33t-31.5 94q0 112 101 183t254 71q195 0 281.5 -87.5t86.5 -299.5v-467q0 -66 13.5 -90t50.5 -24q30 0 67 12l19 -70 q-66 -34 -150 -34q-82 0 -127 34t-57 111q-47 -70 -126.5 -109t-174.5 -39q-129 0 -208 63.5t-79 199.5zM225 1186l217 342q31 22 78 22q28 0 48.5 -12.5t39.5 -46.5l168 -305l-49 -37l-227 221l-226 -223zM303 252q0 -80 33.5 -121t112.5 -41q84 0 150.5 51.5t66.5 139.5 v170h-115q-133 0 -190.5 -51.5t-57.5 -147.5z" />
<glyph unicode="&#xe3;" horiz-adv-x="1042" d="M88 240q0 297 436 297h142v139q0 142 -44.5 210t-160.5 68q-172 0 -172 -86q0 -6 4 -26h67q13 -54 13 -74q0 -51 -32.5 -80t-84.5 -29q-56 0 -87.5 33t-31.5 94q0 112 101 183t254 71q195 0 281.5 -87.5t86.5 -299.5v-467q0 -66 13.5 -90t50.5 -24q30 0 67 12l19 -70 q-66 -34 -150 -34q-82 0 -127 34t-57 111q-47 -70 -126.5 -109t-174.5 -39q-129 0 -208 63.5t-79 199.5zM172 1241q29 99 79.5 149t135.5 50q16 0 30 -1t28.5 -4t23.5 -5t24.5 -8t21.5 -8.5t24 -10.5t24 -10q79 -31 121 -31q36 0 57.5 18t42.5 70l58 -16q-55 -201 -209 -201 q-74 0 -182 47q-82 33 -121 33q-30 0 -53.5 -19t-45.5 -71zM303 252q0 -80 33.5 -121t112.5 -41q84 0 150.5 51.5t66.5 139.5v170h-115q-133 0 -190.5 -51.5t-57.5 -147.5z" />
<glyph unicode="&#xe4;" horiz-adv-x="1042" d="M88 240q0 297 436 297h142v139q0 142 -44.5 210t-160.5 68q-172 0 -172 -86q0 -6 4 -26h67q13 -54 13 -74q0 -51 -32.5 -80t-84.5 -29q-56 0 -87.5 33t-31.5 94q0 112 101 183t254 71q195 0 281.5 -87.5t86.5 -299.5v-467q0 -66 13.5 -90t50.5 -24q30 0 67 12l19 -70 q-66 -34 -150 -34q-82 0 -127 34t-57 111q-47 -70 -126.5 -109t-174.5 -39q-129 0 -208 63.5t-79 199.5zM188 1346q0 45 29.5 76.5t81.5 31.5q50 0 81.5 -27t31.5 -81q0 -51 -29 -82t-82 -31q-58 0 -85.5 33t-27.5 80zM303 252q0 -80 33.5 -121t112.5 -41q84 0 150.5 51.5 t66.5 139.5v170h-115q-133 0 -190.5 -51.5t-57.5 -147.5zM588 1346q0 45 29 76.5t81 31.5q50 0 81.5 -27t31.5 -81q0 -51 -29 -82t-82 -31q-59 0 -85.5 32.5t-26.5 80.5z" />
<glyph unicode="&#xe5;" horiz-adv-x="1042" d="M88 240q0 297 436 297h142v139q0 142 -44.5 210t-160.5 68q-172 0 -172 -86q0 -6 4 -26h67q13 -54 13 -74q0 -51 -32.5 -80t-84.5 -29q-56 0 -87.5 33t-31.5 94q0 112 101 183t254 71q195 0 281.5 -87.5t86.5 -299.5v-467q0 -66 13.5 -90t50.5 -24q30 0 67 12l19 -70 q-66 -34 -150 -34q-82 0 -127 34t-57 111q-47 -70 -126.5 -109t-174.5 -39q-129 0 -208 63.5t-79 199.5zM293 1354q0 83 55 138.5t156 55.5q98 0 150.5 -51.5t52.5 -138.5q0 -90 -54.5 -145.5t-152.5 -55.5q-104 0 -155.5 53t-51.5 144zM303 252q0 -80 33.5 -121t112.5 -41 q84 0 150.5 51.5t66.5 139.5v170h-115q-133 0 -190.5 -51.5t-57.5 -147.5zM399 1354q0 -48 24 -79.5t79 -31.5q96 0 96 111q0 48 -24 79t-76 31q-50 0 -74.5 -32t-24.5 -78z" />
<glyph unicode="&#xe6;" horiz-adv-x="1609" d="M88 254q0 309 436 309h142v86q0 161 -44 233t-161 72q-182 0 -182 -86q0 -6 4 -26h67q12 -50 12 -74q0 -51 -32 -80t-84 -29q-56 0 -87.5 33t-31.5 94q0 112 106 183t271 71q117 0 188 -33t115 -116q127 149 330 149q89 0 158 -24.5t113.5 -65.5t73.5 -100.5t40.5 -124 t11.5 -141.5q0 -54 -6 -113h-651q3 -85 18.5 -149.5t47 -116t86.5 -78.5t132 -27q103 0 165 42.5t101 133.5l91 -30q-41 -125 -142 -197t-254 -72q-246 0 -362 166q-130 -166 -350 -166q-67 0 -123.5 15.5t-101.5 48t-71 87t-26 126.5zM303 272q0 -85 43 -133.5t123 -48.5 q77 0 140 35.5t106 97.5q-44 106 -47 248h-117q-133 0 -190.5 -51.5t-57.5 -147.5zM877 584h454q2 31 2 86q0 143 -48.5 209.5t-154.5 66.5q-119 0 -184.5 -95t-68.5 -267z" />
<glyph unicode="&#xe7;" horiz-adv-x="1003" d="M84 479q0 270 137 415.5t363 145.5q154 0 252 -76.5t98 -199.5q0 -85 -42 -126.5t-106 -41.5q-56 0 -93.5 32.5t-37.5 86.5q0 49 21 90h69q7 28 7 45q0 94 -162 94q-145 0 -219 -109t-74 -315q0 -207 67.5 -314.5t221.5 -107.5q180 0 256 183l90 -31q-10 -31 -25.5 -61.5 t-45 -68t-66.5 -66t-93.5 -49.5t-123.5 -25l-52 -86q21 6 52 6q86 0 132 -44.5t46 -119.5q0 -78 -60 -132.5t-174 -54.5q-82 0 -130 35t-48 84q0 34 19 53t47 19q56 0 69 -55l-35 -33q0 -43 74 -43q100 0 100 115q0 108 -100 108q-48 0 -78 -10l-12 43l70 115 q-200 13 -307 145.5t-107 353.5z" />
<glyph unicode="&#xe8;" horiz-adv-x="1030" d="M84 496q0 253 133 398.5t340 145.5q189 0 292 -111t103 -333q0 -28 -4 -86h-651q0 -199 66.5 -304.5t218.5 -105.5q103 0 165 42.5t101 133.5l90 -30q-41 -125 -141.5 -197t-253.5 -72q-227 0 -343 139.5t-116 379.5zM297 618h457v46q0 282 -203 282q-114 0 -179 -92.5 t-75 -235.5zM360 1493q0 43 32.5 62.5t72.5 9.5l70 -17l135 -385l-47 -24l-224 272q-39 45 -39 82z" />
<glyph unicode="&#xe9;" horiz-adv-x="1030" d="M84 496q0 -240 116 -379.5t343 -139.5q153 0 253.5 72t141.5 197l-90 30q-39 -91 -101 -133.5t-165 -42.5q-152 0 -218.5 105.5t-66.5 304.5h651q4 58 4 86q0 222 -103 333t-292 111q-207 0 -340 -145.5t-133 -398.5zM297 618q10 143 75 235.5t179 92.5q203 0 203 -282 v-46h-457zM426 1169l139 373l76 23q36 8 67 -10.5t31 -59.5q0 -35 -41 -86l-227 -266z" />
<glyph unicode="&#xea;" horiz-adv-x="1030" d="M84 496q0 -240 116 -379.5t343 -139.5q153 0 253.5 72t141.5 197l-90 30q-39 -91 -101 -133.5t-165 -42.5q-152 0 -218.5 105.5t-66.5 304.5h651q4 58 4 86q0 222 -103 333t-292 111q-207 0 -340 -145.5t-133 -398.5zM276 1186l218 342q31 22 77 22q28 0 48.5 -12.5 t39.5 -46.5l168 -305l-49 -37l-227 221l-225 -223zM297 618q10 143 75 235.5t179 92.5q203 0 203 -282v-46h-457z" />
<glyph unicode="&#xeb;" horiz-adv-x="1030" d="M84 496q0 253 133 398.5t340 145.5q189 0 292 -111t103 -333q0 -28 -4 -86h-651q0 -199 66.5 -304.5t218.5 -105.5q103 0 165 42.5t101 133.5l90 -30q-41 -125 -141.5 -197t-253.5 -72q-227 0 -343 139.5t-116 379.5zM240 1346q0 45 29 76.5t81 31.5q50 0 81.5 -27 t31.5 -81q0 -51 -29 -82t-82 -31q-58 0 -85 33t-27 80zM297 618h457v46q0 282 -203 282q-114 0 -179 -92.5t-75 -235.5zM639 1346q0 45 29.5 76.5t81.5 31.5q50 0 81 -27t31 -81q0 -51 -28.5 -82t-81.5 -31q-59 0 -86 32.5t-27 80.5z" />
<glyph unicode="&#xec;" horiz-adv-x="622" d="M66 0v82l153 14v824l-153 14v80l348 12v-930l155 -14v-82h-503zM76 1493q0 43 32 62.5t72 9.5l70 -17l135 -385l-47 -24l-223 272q-39 45 -39 82z" />
<glyph unicode="&#xed;" horiz-adv-x="622" d="M66 0v82l153 14v824l-153 14v80l348 12v-930l155 -14v-82h-503zM141 1169l140 373l75 23q36 8 67.5 -10.5t31.5 -59.5q0 -35 -41 -86l-228 -266z" />
<glyph unicode="&#xee;" horiz-adv-x="622" d="M-8 1186l217 342q31 22 78 22q28 0 48.5 -12.5t39.5 -46.5l168 -305l-49 -37l-228 221l-225 -223zM66 0v82l153 14v824l-153 14v80l348 12v-930l155 -14v-82h-503z" />
<glyph unicode="&#xef;" horiz-adv-x="622" d="M-45 1346q0 45 29.5 76.5t81.5 31.5q50 0 81 -27t31 -81q0 -51 -28.5 -82t-81.5 -31q-58 0 -85.5 33t-27.5 80zM66 0v82l153 14v824l-153 14v80l348 12v-930l155 -14v-82h-503zM354 1346q0 45 29.5 76.5t81.5 31.5q50 0 81.5 -27t31.5 -81q0 -51 -29 -82t-82 -31 q-59 0 -86 32.5t-27 80.5z" />
<glyph unicode="&#xf0;" horiz-adv-x="1107" d="M86 494q0 107 23.5 195t64 147t95.5 99.5t116.5 58.5t128.5 18q99 0 178 -45t131 -127q-17 299 -166 467l-196 -150l-43 90l168 127q-135 101 -336 121l14 84q270 -15 436 -117l199 154l43 -90l-160 -123q244 -213 244 -690q0 -355 -122 -545.5t-365 -190.5 q-212 0 -332.5 136t-120.5 381zM299 500q0 -424 258 -424q130 0 193 112t63 318q0 194 -45 264q-81 127 -221 127q-119 0 -183.5 -99.5t-64.5 -297.5z" />
<glyph unicode="&#xf1;" horiz-adv-x="1251" d="M78 0v82l133 14v824l-133 14v80l293 14l14 -194h6q50 87 140.5 146.5t218.5 59.5q162 0 236.5 -83.5t74.5 -264.5v-596l135 -14v-82h-465v82l135 14v594q0 111 -38.5 162t-149.5 51q-114 0 -193 -70t-79 -190v-547l139 -14v-82h-467zM311 1241q29 99 79.5 149t135.5 50 q16 0 30 -1t28.5 -4t23.5 -5t24.5 -8t21.5 -8.5t24 -10.5t24 -10q79 -31 121 -31q36 0 58 18.5t43 69.5l57 -16q-55 -201 -209 -201q-74 0 -182 47q-82 33 -121 33q-29 0 -52.5 -19t-45.5 -71z" />
<glyph unicode="&#xf2;" horiz-adv-x="1107" d="M84 504q0 241 129.5 388.5t347.5 147.5q153 0 258.5 -68t155 -185t49.5 -275q0 -242 -127 -388.5t-348 -146.5q-224 0 -344.5 143.5t-120.5 383.5zM297 518q0 -74 6.5 -134.5t24 -119.5t46 -99t75 -64.5t108.5 -24.5q74 0 125.5 34t78.5 96t38.5 134t11.5 164 q0 72 -6 131.5t-23.5 118.5t-46 99t-75.5 64.5t-109 24.5q-75 0 -127 -33.5t-78.5 -96t-37.5 -133t-11 -161.5zM367 1493q0 43 32 62.5t72 9.5l70 -17l135 -385l-47 -24l-223 272q-39 45 -39 82z" />
<glyph unicode="&#xf3;" horiz-adv-x="1107" d="M84 504q0 241 129.5 388.5t347.5 147.5q153 0 258.5 -68t155 -185t49.5 -275q0 -242 -127 -388.5t-348 -146.5q-224 0 -344.5 143.5t-120.5 383.5zM297 518q0 -74 6.5 -134.5t24 -119.5t46 -99t75 -64.5t108.5 -24.5q74 0 125.5 34t78.5 96t38.5 134t11.5 164 q0 72 -6 131.5t-23.5 118.5t-46 99t-75.5 64.5t-109 24.5q-75 0 -127 -33.5t-78.5 -96t-37.5 -133t-11 -161.5zM432 1169l139 373l76 23q36 8 67 -10.5t31 -59.5q0 -36 -40 -86l-228 -266z" />
<glyph unicode="&#xf4;" horiz-adv-x="1107" d="M84 504q0 241 129.5 388.5t347.5 147.5q153 0 258.5 -68t155 -185t49.5 -275q0 -242 -127 -388.5t-348 -146.5q-224 0 -344.5 143.5t-120.5 383.5zM283 1186l217 342q31 22 78 22q28 0 48.5 -12.5t39.5 -46.5l168 -305l-50 -37l-227 221l-225 -223zM297 518 q0 -74 6.5 -134.5t24 -119.5t46 -99t75 -64.5t108.5 -24.5q74 0 125.5 34t78.5 96t38.5 134t11.5 164q0 72 -6 131.5t-23.5 118.5t-46 99t-75.5 64.5t-109 24.5q-75 0 -127 -33.5t-78.5 -96t-37.5 -133t-11 -161.5z" />
<glyph unicode="&#xf5;" horiz-adv-x="1107" d="M84 504q0 241 129.5 388.5t347.5 147.5q153 0 258.5 -68t155 -185t49.5 -275q0 -242 -127 -388.5t-348 -146.5q-224 0 -344.5 143.5t-120.5 383.5zM229 1241q29 99 79.5 149t135.5 50q16 0 30 -1t29 -4.5t23.5 -5t25 -8t21.5 -8t24.5 -10t23.5 -10.5q79 -31 120 -31 q36 0 58 18.5t43 69.5l57 -16q-55 -201 -209 -201q-74 0 -182 47q-82 33 -121 33q-29 0 -52.5 -19t-45.5 -71zM297 518q0 -74 6.5 -134.5t24 -119.5t46 -99t75 -64.5t108.5 -24.5q74 0 125.5 34t78.5 96t38.5 134t11.5 164q0 72 -6 131.5t-23.5 118.5t-46 99t-75.5 64.5 t-109 24.5q-75 0 -127 -33.5t-78.5 -96t-37.5 -133t-11 -161.5z" />
<glyph unicode="&#xf6;" horiz-adv-x="1107" d="M84 504q0 241 129.5 388.5t347.5 147.5q153 0 258.5 -68t155 -185t49.5 -275q0 -242 -127 -388.5t-348 -146.5q-224 0 -344.5 143.5t-120.5 383.5zM246 1346q0 45 29 76.5t81 31.5q50 0 81.5 -27t31.5 -81q0 -51 -29 -82t-82 -31q-58 0 -85 33t-27 80zM297 518 q0 -74 6.5 -134.5t24 -119.5t46 -99t75 -64.5t108.5 -24.5q74 0 125.5 34t78.5 96t38.5 134t11.5 164q0 72 -6 131.5t-23.5 118.5t-46 99t-75.5 64.5t-109 24.5q-75 0 -127 -33.5t-78.5 -96t-37.5 -133t-11 -161.5zM645 1346q0 45 29.5 76.5t81.5 31.5q50 0 81 -27t31 -81 q0 -51 -28.5 -82t-81.5 -31q-59 0 -86 32.5t-27 80.5z" />
<glyph unicode="&#xf7;" horiz-adv-x="1228" d="M150 565v119h929v-119h-929zM467 311q0 64 39 106t108 42q68 0 109 -37t41 -109q0 -68 -39 -108.5t-109 -40.5q-78 0 -113.5 42.5t-35.5 104.5zM467 940q0 64 38.5 105.5t108.5 41.5q68 0 109 -36.5t41 -108.5q0 -68 -39 -108.5t-109 -40.5q-78 0 -113.5 42.5 t-35.5 104.5z" />
<glyph unicode="&#xf8;" horiz-adv-x="1107" d="M84 504q0 241 129.5 388.5t347.5 147.5q102 0 187 -32l65 133l92 -43l-67 -137q92 -66 139 -182t47 -267q0 -242 -127 -388.5t-348 -146.5q-88 0 -174 27l-72 -145l-90 43l72 147q-99 65 -150 182.5t-51 272.5zM297 518q0 -219 57 -323l340 700q-56 47 -143 47 q-75 0 -127 -33.5t-78.5 -96t-37.5 -133t-11 -161.5zM426 113q52 -37 131 -37q74 0 125.5 34t78.5 96t38.5 134t11.5 164q0 192 -49 301z" />
<glyph unicode="&#xf9;" horiz-adv-x="1234" d="M57 934v80l330 12v-702q0 -109 39 -159t147 -50q115 0 191 71.5t76 204.5v529l-140 14v80l334 12v-930l133 -14v-82h-297l-10 174h-8q-48 -85 -135 -141t-209 -56q-163 0 -239 84.5t-76 264.5v594zM377 1493q0 43 32 62.5t72 9.5l70 -17l135 -385l-47 -24l-223 272 q-39 45 -39 82z" />
<glyph unicode="&#xfa;" horiz-adv-x="1234" d="M57 934v80l330 12v-702q0 -109 39 -159t147 -50q115 0 191 71.5t76 204.5v529l-140 14v80l334 12v-930l133 -14v-82h-297l-10 174h-8q-48 -85 -135 -141t-209 -56q-163 0 -239 84.5t-76 264.5v594zM481 1169l140 373l75 23q36 8 67.5 -10.5t31.5 -59.5q0 -35 -41 -86 l-228 -266z" />
<glyph unicode="&#xfb;" horiz-adv-x="1234" d="M57 934v80l330 12v-702q0 -109 39 -159t147 -50q115 0 191 71.5t76 204.5v529l-140 14v80l334 12v-930l133 -14v-82h-297l-10 174h-8q-48 -85 -135 -141t-209 -56q-163 0 -239 84.5t-76 264.5v594zM319 1186l218 342q31 22 77 22q28 0 48.5 -12.5t39.5 -46.5l168 -305 l-49 -37l-227 221l-225 -223z" />
<glyph unicode="&#xfc;" horiz-adv-x="1234" d="M57 934v80l330 12v-702q0 -109 39 -159t147 -50q115 0 191 71.5t76 204.5v529l-140 14v80l334 12v-930l133 -14v-82h-297l-10 174h-8q-48 -85 -135 -141t-209 -56q-163 0 -239 84.5t-76 264.5v594zM272 1346q0 45 29.5 76.5t81.5 31.5q50 0 81.5 -27t31.5 -81 q0 -51 -29 -82t-82 -31q-58 0 -85.5 33t-27.5 80zM672 1346q0 45 29 76.5t81 31.5q50 0 81.5 -27t31.5 -81q0 -51 -29 -82t-82 -31q-59 0 -85.5 32.5t-26.5 80.5z" />
<glyph unicode="&#xfd;" horiz-adv-x="1032" d="M8 -238q0 60 36 102t99 42q52 0 84 -34t33 -101l-78 -43q-6 -37 16 -53.5t66 -16.5q61 0 91.5 48t88.5 216l19 58l-361 948l-92 8v82h453v-82l-141 -8l237 -699h8l236 699l-141 8v82h364v-82l-102 -8l-392 -1086q-21 -59 -38 -97t-41 -75t-51.5 -57t-67 -32.5 t-90.5 -12.5q-100 0 -168 50.5t-68 143.5zM426 1169l139 373l76 23q36 8 67 -10.5t31 -59.5q0 -35 -41 -86l-227 -266z" />
<glyph unicode="&#xfe;" horiz-adv-x="1189" d="M49 -328l133 15v1745l-133 14v78l328 12v-668q44 74 128.5 123t201.5 49q190 0 289.5 -132t99.5 -390q0 -259 -119.5 -400t-312.5 -141q-184 0 -287 86v-372l250 -19v-82h-578v82zM377 332q0 -114 69.5 -183t186.5 -69q132 0 189 104.5t57 317.5q0 210 -51.5 310.5 t-186.5 100.5q-130 0 -211 -100q-53 -67 -53 -170v-311z" />
<glyph unicode="&#xff;" horiz-adv-x="1032" d="M8 -238q0 60 36 102t99 42q52 0 84 -34t33 -101l-78 -43q-6 -37 16 -53.5t66 -16.5q61 0 91.5 48t88.5 216l19 58l-361 948l-92 8v82h453v-82l-141 -8l237 -699h8l236 699l-141 8v82h364v-82l-102 -8l-392 -1086q-21 -59 -38 -97t-41 -75t-51.5 -57t-67 -32.5 t-90.5 -12.5q-100 0 -168 50.5t-68 143.5zM227 1346q0 45 29.5 76.5t81.5 31.5q50 0 81.5 -27t31.5 -81q0 -51 -29 -82t-82 -31q-58 0 -85.5 33t-27.5 80zM627 1346q0 45 29 76.5t81 31.5q50 0 81.5 -27t31.5 -81q0 -51 -29 -82t-82 -31q-59 0 -85.5 32.5t-26.5 80.5z" />
<glyph unicode="&#x152;" horiz-adv-x="2152" d="M88 713q0 336 184.5 539.5t479.5 203.5q131 0 237.5 -51t171.5 -143v172h821l17 -385h-76q-16 77 -37 127t-48.5 84t-72 51.5t-97.5 24.5t-134 7h-182v-563h106q121 0 169.5 52t72.5 192h63v-606h-67q-13 86 -27.5 132.5t-44 77.5t-71.5 40.5t-115 9.5h-86v-584h180 q119 0 195 17t127.5 61.5t78.5 111t45 175.5h76l-16 -459h-877v184q-70 -91 -182.5 -149t-251.5 -58q-306 0 -472.5 191.5t-166.5 544.5zM326 715q0 -88 7 -162.5t24 -149t48 -131t75.5 -101t110 -68t148.5 -23.5q96 0 168.5 33t117 89t72 140t38 175t10.5 206 q0 113 -9.5 202t-36.5 172.5t-70.5 138t-115.5 87.5t-168 33q-102 0 -177.5 -33t-121.5 -88t-73.5 -140t-37 -174.5t-9.5 -205.5z" />
<glyph unicode="&#x153;" horiz-adv-x="1744" d="M84 504q0 241 129.5 388.5t347.5 147.5q256 0 357 -190q117 190 354 190q189 0 292 -111t103 -333q0 -26 -4 -84h-651q0 -98 15 -171.5t47.5 -128.5t88 -83.5t133.5 -28.5q104 0 166 42.5t101 133.5l90 -30q-41 -125 -142 -197t-254 -72q-251 0 -356 183 q-111 -183 -352 -183q-224 0 -344.5 143.5t-120.5 383.5zM297 518q0 -74 6.5 -134.5t24 -119.5t46 -99t75 -64.5t108.5 -24.5q74 0 125.5 34t78.5 96t38.5 134t11.5 164q0 72 -6 131.5t-23.5 118.5t-46 99t-75.5 64.5t-109 24.5q-75 0 -127 -33.5t-78.5 -96t-37.5 -133 t-11 -161.5zM1012 625h452v39q0 142 -47.5 212t-150.5 70q-115 0 -179.5 -89.5t-74.5 -231.5z" />
<glyph unicode="&#x178;" horiz-adv-x="1259" d="M6 1350v84h574v-84l-195 -15l303 -561h8l305 561l-172 15v84h424v-84l-135 -15l-379 -671v-568l174 -14v-82h-563v82l174 14v568l-381 671zM356 1669q0 45 29.5 77t81.5 32q50 0 81.5 -27.5t31.5 -81.5q0 -51 -29 -82t-82 -31q-58 0 -85.5 33t-27.5 80zM756 1669 q0 45 29 77t81 32q50 0 81.5 -27.5t31.5 -81.5q0 -51 -29 -82t-82 -31q-59 0 -85.5 32.5t-26.5 80.5z" />
<glyph unicode="&#x2c6;" horiz-adv-x="1024" d="M236 1186l217 342q31 22 77 22q28 0 48.5 -12.5t39.5 -46.5l168 -305l-49 -37l-227 221l-225 -223z" />
<glyph unicode="&#x2dc;" horiz-adv-x="1024" d="M174 1241q29 99 79.5 149t135.5 50q16 0 30 -1t28.5 -4t23.5 -5t24.5 -8t21.5 -8.5t24 -10.5t24 -10q79 -31 121 -31q36 0 57.5 18t42.5 70l58 -16q-55 -201 -209 -201q-74 0 -182 47q-82 33 -121 33q-30 0 -53.5 -19t-45.5 -71z" />
<glyph unicode="&#x2000;" horiz-adv-x="943" />
<glyph unicode="&#x2001;" horiz-adv-x="1886" />
<glyph unicode="&#x2002;" horiz-adv-x="943" />
<glyph unicode="&#x2003;" horiz-adv-x="1886" />
<glyph unicode="&#x2004;" horiz-adv-x="628" />
<glyph unicode="&#x2005;" horiz-adv-x="471" />
<glyph unicode="&#x2006;" horiz-adv-x="314" />
<glyph unicode="&#x2007;" horiz-adv-x="314" />
<glyph unicode="&#x2008;" horiz-adv-x="235" />
<glyph unicode="&#x2009;" horiz-adv-x="377" />
<glyph unicode="&#x200a;" horiz-adv-x="104" />
<glyph unicode="&#x2010;" horiz-adv-x="690" d="M102 512v162h486v-162h-486z" />
<glyph unicode="&#x2011;" horiz-adv-x="690" d="M102 512v162h486v-162h-486z" />
<glyph unicode="&#x2012;" horiz-adv-x="690" d="M102 512v162h486v-162h-486z" />
<glyph unicode="&#x2013;" horiz-adv-x="1024" d="M41 492v120h942v-120h-942z" />
<glyph unicode="&#x2014;" horiz-adv-x="2048" d="M41 492v120h1966v-120h-1966z" />
<glyph unicode="&#x2018;" horiz-adv-x="487" d="M121 1188q0 105 65.5 193t167.5 153l39 -53q-157 -102 -157 -219q0 -47 28 -60l64 58q73 -45 73 -125q0 -46 -35 -81.5t-96 -35.5q-72 0 -110.5 48.5t-38.5 121.5z" />
<glyph unicode="&#x2019;" horiz-adv-x="487" d="M92 1337q0 46 35 81.5t96 35.5q72 0 111 -48.5t39 -121.5q0 -105 -66 -193t-168 -153l-39 53q158 103 158 219q0 46 -29 60l-63 -58q-74 46 -74 125z" />
<glyph unicode="&#x201a;" horiz-adv-x="516" d="M109 111q0 46 35 81t96 35q72 0 110.5 -48.5t38.5 -121.5q0 -105 -65.5 -193t-167.5 -153l-39 53q157 102 157 220q0 46 -28 59l-64 -57q-73 45 -73 125z" />
<glyph unicode="&#x201c;" horiz-adv-x="831" d="M127 1188q0 105 65.5 193t167.5 153l39 -53q-157 -102 -157 -219q0 -47 28 -60l64 58q74 -46 74 -125q0 -46 -35.5 -81.5t-96.5 -35.5q-72 0 -110.5 48.5t-38.5 121.5zM471 1188q0 105 66 193t168 153l38 -53q-157 -102 -157 -219q0 -47 28 -60l64 58q74 -46 74 -125 q0 -46 -35 -81.5t-96 -35.5q-72 0 -111 48.5t-39 121.5z" />
<glyph unicode="&#x201d;" horiz-adv-x="825" d="M92 1337q0 46 35 81.5t96 35.5q72 0 111 -48.5t39 -121.5q0 -105 -66 -193t-168 -153l-39 53q158 103 158 219q0 46 -29 60l-63 -58q-74 46 -74 125zM430 1337q0 46 35 81.5t96 35.5q72 0 111 -48.5t39 -121.5q0 -105 -66 -193t-168 -153l-39 53q158 103 158 219 q0 46 -29 60l-63 -58q-74 46 -74 125z" />
<glyph unicode="&#x201e;" horiz-adv-x="854" d="M109 111q0 46 35 81t96 35q72 0 110.5 -48.5t38.5 -121.5q0 -105 -65.5 -193t-167.5 -153l-39 53q157 102 157 220q0 46 -28 59l-64 -57q-73 45 -73 125zM446 111q0 46 35.5 81t96.5 35q72 0 110.5 -48.5t38.5 -121.5q0 -105 -65.5 -193t-167.5 -153l-39 53 q157 102 157 220q0 46 -28 59l-64 -57q-74 46 -74 125z" />
<glyph unicode="&#x2022;" horiz-adv-x="702" d="M129 592q0 96 58 158.5t163 62.5q102 0 162.5 -54.5t60.5 -164.5q0 -101 -57.5 -162t-163.5 -61q-116 0 -169.5 64t-53.5 157z" />
<glyph unicode="&#x2026;" horiz-adv-x="1640" d="M129 127q0 64 38.5 105.5t108.5 41.5q68 0 109 -36.5t41 -108.5q0 -68 -38.5 -108.5t-108.5 -40.5q-78 0 -114 42.5t-36 104.5zM672 127q0 64 38.5 105.5t108.5 41.5q68 0 109 -36.5t41 -108.5q0 -68 -39 -108.5t-109 -40.5q-78 0 -113.5 42.5t-35.5 104.5zM1214 127 q0 64 39 105.5t109 41.5q68 0 108.5 -36.5t40.5 -108.5q0 -68 -38.5 -108.5t-108.5 -40.5q-78 0 -114 42.5t-36 104.5z" />
<glyph unicode="&#x202f;" horiz-adv-x="377" />
<glyph unicode="&#x2039;" horiz-adv-x="647" d="M80 461q0 27 22 67l361 297l55 -59l-246 -293l244 -317l-55 -60l-326 283q-55 47 -55 82z" />
<glyph unicode="&#x203a;" horiz-adv-x="649" d="M129 156l246 295l-244 315l55 59l326 -282q30 -25 42.5 -44t12.5 -42q0 -31 -22 -64l-361 -297z" />
<glyph unicode="&#x205f;" horiz-adv-x="471" />
<glyph unicode="&#x20ac;" horiz-adv-x="1167" d="M66 373v88h145q-2 23 -2 74q0 25 4 75h-123v88h133q41 199 172.5 311.5t309.5 112.5q60 0 108.5 -11t79.5 -22.5t47 -11.5q14 0 22.5 6.5t20.5 22.5h47l14 -315h-61q-33 127 -96.5 181t-173.5 54q-113 0 -181 -84t-90 -244h404v-88h-410q-2 -23 -2 -67q0 -55 2 -82h365 v-88h-355q24 -144 92 -223.5t181 -79.5q117 0 181 54.5t99 186.5h60l-12 -317h-54q-7 11 -11.5 16t-13 9t-20.5 4q-14 0 -95.5 -23t-164.5 -23q-174 0 -299 104.5t-164 291.5h-159z" />
<glyph unicode="&#x2122;" horiz-adv-x="1912" d="M123 1094l12 233h641l10 -233h-53q-9 47 -20 76.5t-24 49t-36 28t-47.5 11.5t-66.5 3h-15v-623l105 -10v-60h-348v60l106 10v623h-14q-53 0 -81 -4.5t-53 -22t-38 -50.5t-23 -91h-55zM852 569v56l70 12v623l-70 8v59h276l193 -573h4l180 573h275v-59l-82 -8v-623l82 -12 v-56h-301v56l80 12v612h-5l-215 -680h-96l-237 682h-5v-614l74 -12v-56h-223z" />
<glyph unicode="&#xe000;" horiz-adv-x="1013" d="M0 0v1014h1014v-1014h-1014z" />
</font>
</defs>
</svg>
